<svg width="375" height="275" viewBox="0 50 375 325" fill="none" xmlns="http://www.w3.org/2000/svg">
<path d="M207.921 182.468C206.05 125.142 126.082 106.832 78.849 120.129C31.6162 133.425 26.2382 185.738 32.5515 247.205C38.8648 308.673 99.8143 347.851 141.748 309.763C178.225 276.632 209.791 239.794 207.921 182.468Z" fill="url(#paint0_linear_4_853)"/>
<path d="M245.994 198.865L246.708 194.638L243.736 194.741L241.041 192.898L237.896 192.717L237.619 197.282C238.194 199.351 244.277 199.947 245.994 198.865Z" fill="white"/>
<path d="M238.508 171.275L237.832 174.19L236.327 176.455L238.018 176.69L238.047 180.81C237.664 180.712 237.125 180.591 236.298 180.445L239.646 183.717L241.967 187.955C241.687 188.462 241.67 189.13 242.009 189.839C242.121 190.07 240.539 191.086 241.164 192.444C241.443 193.046 241.993 193.178 243.869 194.165C245.433 194.992 249.503 194.427 249.327 191.954C249.29 191.419 249.536 191.046 249.834 190.645C249.971 190.511 250.087 190.358 250.181 190.19C250.586 189.649 250.809 188.992 250.815 188.315C250.816 187.631 250.93 186.951 251.153 186.303C251.205 186.167 251.246 186.027 251.274 185.884C251.322 185.715 251.369 185.536 251.416 185.323C251.771 183.749 250.718 182.65 249.124 181.941L249.8 178.325L251.814 178.604L250.98 175.814L251.087 172.927L238.508 171.275ZM242.956 187.188C242.625 187.281 242.33 187.474 242.111 187.74C242.202 187.591 242.325 187.464 242.471 187.368C242.617 187.273 242.783 187.211 242.956 187.188Z" fill="white"/>
<path d="M219.658 154.75C219.584 154.691 219.504 154.639 219.42 154.595L219.658 154.75Z" fill="white"/>
<path d="M228.807 160.743L232.036 162.857C231.647 161.269 231.326 159.656 228.807 160.743Z" fill="white"/>
<path d="M235.294 164.987L232.041 162.857C232.415 164.363 232.864 165.848 235.294 164.987Z" fill="white"/>
<path d="M170.276 200.116L175.427 200.256L182.942 200.454C178.726 200.285 174.582 200.089 170.276 200.116Z" fill="white"/>
<path d="M146.027 154.014C144.336 153.654 144.556 153.156 143.57 154.539C142.218 156.435 139.979 160.471 139.979 160.471C140.05 160.809 141.215 160.655 141.562 160.919L146.027 154.014Z" fill="white"/>
<path d="M238.241 170.889L237.502 174.049L235.725 176.724L237.671 176.993L237.695 180.374C237.419 180.311 237.083 180.24 236.667 180.164C236.702 179.743 236.733 179.319 236.75 178.898C236.768 178.421 236.772 178.308 225.422 175.723C220.871 174.685 216.166 173.613 215.187 173.206C214.784 173.036 213.484 170.734 211.581 166.091C211.05 164.798 210.546 163.498 210.117 162.329L209.812 162.51L209.511 162.691L207.68 163.785L207.278 164.025L206.876 164.265L203.717 179.843L203.699 179.936L203.729 180.026C204.478 182.186 208.463 187.11 214.688 189.243L235.027 193.668V193.237C235.027 192.941 235.027 192.645 235.044 192.349C235.856 192.591 236.699 192.717 237.548 192.723L237.27 197.328L237.286 197.384C237.475 198.06 238.148 198.645 239.23 199.066C240.507 199.522 241.854 199.751 243.21 199.742C244.444 199.742 245.556 199.551 246.177 199.162L246.309 199.079L247.049 194.706C247.564 194.594 248.056 194.394 248.503 194.114C249.326 193.578 249.727 192.822 249.665 191.931C249.636 191.527 249.82 191.238 250.092 190.88C250.246 190.725 250.378 190.549 250.483 190.357C250.914 189.768 251.151 189.059 251.159 188.329C251.153 187.68 251.256 187.036 251.462 186.421L251.472 186.386C251.522 186.253 251.562 186.117 251.592 185.979C251.639 185.809 251.688 185.617 251.737 185.397C251.847 184.963 251.847 184.508 251.737 184.074C251.628 183.64 251.412 183.24 251.11 182.91C250.657 182.412 250.11 182.009 249.499 181.726L250.069 178.702L252.288 179.01L251.323 175.77L251.44 172.624L238.241 170.889ZM250.204 178.029L247.724 177.691L240.05 176.616L238.359 176.381L238.021 176.333L237.673 176.284L236.92 176.181L238.072 174.448L250.714 176.119L251.328 178.176L250.204 178.029ZM250.723 173.226L250.643 175.424L238.275 173.784L238.772 171.659L250.723 173.226ZM235.079 191.625C235.209 189.558 235.559 187.52 235.901 185.539C236.166 184.007 236.433 182.437 236.601 180.856C237.062 180.942 237.417 181.025 237.7 181.086V181.316C237.772 182.45 239.585 183.344 243.086 183.962C243.732 184.077 244.383 184.168 245.003 184.242C245.935 184.538 247.519 185.392 248.123 186.398C248.41 186.878 248.441 187.324 248.214 187.76C248.157 187.898 248.072 188.022 247.965 188.126C247.859 188.229 247.732 188.31 247.593 188.364C247.017 188.543 246.172 188.09 245.353 187.652C244.589 187.245 243.805 186.826 243.091 186.836V186.802C243.017 186.817 242.946 186.834 242.877 186.854C242.8 186.865 242.724 186.882 242.65 186.905C242.314 187.017 242.026 187.241 241.835 187.539C241.756 187.638 241.686 187.744 241.629 187.857C241.333 188.442 241.336 189.147 241.629 189.854C241.592 189.903 241.541 189.963 241.495 190.023C241.157 190.432 240.572 191.132 240.677 192.014C240.22 191.988 239.763 191.988 239.306 192.014C238.078 192.051 236.364 192.109 235.079 191.625ZM240.789 192.435C240.8 192.471 240.816 192.506 240.831 192.542H240.77L240.789 192.435ZM248.973 191.977C249.017 192.611 248.731 193.133 248.128 193.529C246.944 194.307 244.944 194.344 244.026 193.867C243.576 193.629 243.196 193.438 242.892 193.284C241.901 192.785 241.637 192.641 241.483 192.308C241.159 191.607 241.58 191.013 242.036 190.466L242.112 190.376C243.519 191.48 245.139 192.067 246.721 192.067C247.099 192.067 247.477 192.033 247.849 191.965C248.24 191.896 248.621 191.783 248.987 191.627C248.97 191.743 248.965 191.86 248.973 191.977ZM250.459 188.307C250.439 189.282 250.035 189.81 249.643 190.322L249.566 190.42C249.156 190.821 248.493 191.135 247.719 191.279C246.858 191.438 244.615 191.59 242.295 189.625C242.057 189.093 242.036 188.577 242.244 188.166C242.244 188.151 242.263 188.136 242.271 188.119H242.285C242.315 188.061 242.349 188.004 242.386 187.95C242.553 187.751 242.774 187.606 243.022 187.531C243.561 187.478 244.305 187.869 245.027 188.261C245.796 188.672 246.586 189.093 247.313 189.093C247.478 189.094 247.642 189.07 247.8 189.022C248.211 188.884 248.554 188.592 248.757 188.208V188.23C249.375 188.148 249.968 187.933 250.496 187.602C250.479 187.808 250.466 188.038 250.459 188.307ZM250.591 183.365C250.821 183.614 250.985 183.916 251.068 184.244C251.151 184.573 251.15 184.917 251.066 185.245C251.029 185.414 250.992 185.556 250.955 185.693C250.955 185.725 250.943 185.759 250.938 185.793C250.894 185.948 250.851 186.088 250.811 186.22C250.606 186.707 250.143 187.211 249.039 187.471C249.111 186.972 249.001 186.464 248.728 186.039C248.359 185.426 247.714 184.871 247.015 184.432C247.834 184.491 248.441 184.513 248.654 184.513H248.725L248.992 184.494L249.379 182.447C249.836 182.676 250.247 182.987 250.591 183.365Z" fill="#2A2A2B"/>
<path d="M230.804 293.471V293.422L230.296 291.645C230.332 291.45 230.296 291.097 229.945 290.433L229.93 290.382H229.918C229.852 290.255 229.776 290.118 229.686 289.968C229.243 289.224 225.136 282.754 217.545 284.534C211.307 285.998 209.581 283.77 208.438 282.295C208.203 281.962 207.93 281.657 207.625 281.388L185.007 210.718C186.409 210.686 187.809 210.58 189.2 210.4C189.21 212.324 189.218 214.15 189.218 215.923H189.911C189.911 214.118 189.911 212.26 189.893 210.298C191.147 210.108 192.38 209.795 193.573 209.363L190.243 219.864L190.904 220.072L197.939 197.85H198.468L198.571 197.747C198.644 197.674 198.678 197.64 200.059 191.985C200.816 188.893 201.957 184.135 203.102 179.033C204.369 173.397 205.358 168.632 206.069 164.737L205.67 164.975L205.271 165.213L190.917 173.79C184.831 177.171 180.219 178.849 176.978 178.849C175.599 178.849 174.466 178.546 173.578 177.941C169.989 175.51 170.844 168.811 171.671 162.326C172.022 159.572 172.347 156.971 172.347 154.733H173.04C173.04 157.015 172.702 159.636 172.352 162.414C171.552 168.688 170.724 175.175 173.96 177.366C176.712 179.226 182.143 177.865 190.564 173.188L205.139 164.48L205.43 164.311L205.457 164.295L205.829 164.074L206.226 163.835L207.056 163.34L207.459 163.098L207.861 162.858L209.264 162.021L209.567 161.84L209.87 161.658L215.762 158.138L213.356 153.718L213.545 154.025L213.741 153.901L214.036 153.715L214.117 153.664L221.622 148.931L221.647 148.914C222.869 147.994 224.036 147.005 225.143 145.95L229.121 146.821H229.148L229.361 146.837C229.842 146.876 230.099 146.895 230.173 146.895C232.012 146.895 232.332 145.204 232.503 144.298L234.822 127.537C234.859 127.155 234.903 126.8 234.942 126.47C235.111 125.067 235.23 124.054 234.68 123.366C234.297 122.887 233.637 122.622 232.543 122.51L224.335 121.171C222.633 120.965 221.901 122.661 221.753 123.586C221.753 123.595 221.753 123.605 221.753 123.614L220.332 132.621C218.212 132.604 215.26 133.804 214.571 135.892C213.846 138.114 213.714 139.228 213.708 141.512L209.312 144.815L209.236 144.873L208.955 145.083L208.751 145.236L208.735 145.208L206.663 146.56L206.36 146.76L206.056 146.958L202.725 149.135L202.411 149.341L188.04 158.745C187.993 158.796 187.929 158.828 187.861 158.836L185.964 159.274L187.473 158.287V158.295L187.758 158.14C188.878 157.519 189.575 157.047 190.045 156.601L205.888 146.241L206.187 146.045L206.485 145.85C205.78 143.287 204.686 141.679 203.21 141.054C200.755 140.012 197.898 141.913 196.133 143.383C196.175 143.214 196.216 143.054 196.258 142.888C196.818 140.658 197.349 138.543 197.423 137.495L197.68 137.404C199.283 136.835 204.157 135.108 204.089 131.615C203.968 125.214 202.034 120.404 199.477 117.665C201.782 115.751 203.345 113.587 202.899 111.355C202.586 109.797 201.626 108.84 200.121 108.584C196.432 107.961 189.839 111.856 187.293 116.165C186.192 118.025 185.637 122.769 187.453 124.208C187.313 125.265 187.23 126.329 187.203 127.395C187.09 131.547 186.843 135.153 186.567 137.04C185.833 136.651 185.038 136.389 184.216 136.266C180.053 135.635 175.931 138.475 172.665 144.029C172.645 143.989 172.621 143.948 172.597 143.906C171.634 142.237 167.694 139.143 162.526 139.143H162.443C158.736 139.167 153.363 140.893 148.82 148.986C148.629 149.324 147.467 151.133 145.868 153.62C145.582 153.549 145.361 153.478 145.178 153.419C144.25 153.115 144.04 153.279 143.288 154.336C141.935 156.227 139.768 160.136 139.677 160.302L139.614 160.414L139.639 160.54C139.729 160.975 140.238 161.027 140.73 161.078C140.809 161.086 140.918 161.097 141.022 161.112C137.311 166.847 133.678 172.468 133.053 173.538C130.107 178.585 130.621 181.665 131.57 183.361C132.701 185.39 135.039 186.534 138.152 186.604L155.782 186.998C154.073 191.923 152.942 195.684 152.972 196.973V197.311L155.253 197.338C152.526 208.682 157.861 218.654 160.616 223.682L142.503 276.092C141.979 277.218 140.632 279.23 139.207 281.361C137.115 284.483 135.604 286.793 135.092 288.142C134.78 288.136 134.474 288.23 134.219 288.411C133.269 289.056 132.669 290.777 132.934 292.105C133.103 292.96 133.611 293.515 134.365 293.667C134.854 293.775 135.352 293.845 135.852 293.875C135.808 294.213 135.852 294.69 136.065 295.385C136.294 296.113 137.6 296.369 140.424 296.23C140.179 297.178 140.267 297.921 140.683 298.458C141.536 299.544 143.449 299.363 144.591 299.255L144.906 299.227C144.651 300.379 144.771 301.204 145.266 301.741C146.138 302.688 147.903 302.354 149.07 302.134C149.288 302.093 149.537 302.046 149.726 302.02C149.251 303.204 149.597 303.948 149.991 304.364C150.862 305.285 152.653 305.361 153.298 305.096C154.191 304.727 154.517 304.682 154.637 304.688C154.634 304.789 154.624 304.889 154.607 304.988C154.546 305.425 154.438 306.161 155.192 306.541C156.287 307.098 157.309 307.373 158.235 307.373C158.864 307.38 159.485 307.237 160.048 306.955C160.61 306.673 161.097 306.261 161.468 305.753C161.779 306.234 162.263 306.575 162.82 306.705C163.519 306.872 164.25 306.851 164.938 306.646C165.627 306.441 166.25 306.059 166.744 305.537C167.566 304.624 167.748 303.403 167.267 302.091C167.679 299.589 167.343 297.559 166.266 296.057C164.585 293.712 161.545 293.229 159.911 292.97C159.606 292.932 159.304 292.873 159.008 292.791C157.643 291.195 156.336 287.149 157.681 283.066L157.777 282.774L157.062 282.436L172.873 247.961L191.808 285.697C191.54 286.252 191.905 286.923 192.238 287.413C193.083 289.848 193.555 292.384 193.969 294.625C194.422 297.075 194.814 299.204 195.589 300.457C195.251 301.346 195.533 303.623 195.798 304.568C195.993 305.245 196.219 305.583 196.537 305.66C196.724 305.702 196.915 305.723 197.107 305.723C198.24 305.723 198.982 304.942 199.45 304.448C199.574 304.308 199.709 304.179 199.854 304.061C199.933 304.189 199.994 304.327 200.033 304.472C200.082 304.642 200.174 304.797 200.3 304.921C200.426 305.046 200.581 305.136 200.752 305.184C201.734 305.463 203.161 304.507 203.457 304.247C203.982 303.836 204.412 303.317 204.72 302.725L204.889 302.867C205.591 303.481 206.309 303.713 207.023 303.571C208.169 303.336 208.98 302.168 209.427 301.326C209.615 301.453 209.786 301.606 209.934 301.779C210.404 302.286 210.653 302.306 212.582 301.948C214.541 301.589 215.493 300.257 215.917 299.628C216.209 299.887 216.552 300.083 216.924 300.203C217.295 300.323 217.688 300.364 218.076 300.325C219.157 300.252 220.135 299.708 220.57 298.94C220.768 298.588 220.908 298.33 220.996 298.142C222.714 298.818 223.015 298.703 224.704 297.728C225.272 297.4 225.656 296.742 225.887 296.281C226.592 296.734 227.887 296.759 228.327 296.649C229.038 296.478 229.671 296.071 230.121 295.493C230.571 294.916 230.812 294.203 230.804 293.471ZM209.29 145.706L209.571 145.497L209.647 145.439L214.409 141.869V141.7C214.409 139.38 214.522 138.308 215.238 136.12C215.792 134.43 218.379 133.353 220.23 133.326C220.35 133.326 220.465 133.326 220.578 133.334C220.656 133.334 220.732 133.341 220.807 133.354C220.731 133.486 220.624 133.652 220.499 133.838C220.374 134.024 220.212 134.262 220.044 134.499C219.272 135.593 218.254 136.932 218.075 137.148L217.288 138.1L218.457 137.696C218.769 137.588 219.001 137.3 219.187 137.07C219.251 136.991 219.312 136.915 219.356 136.864C219.478 136.744 219.603 136.604 219.73 136.455C219.857 136.306 220.019 136.105 220.168 135.909C220.316 135.713 220.465 135.507 220.617 135.287C221.444 134.103 222.323 132.592 223.131 131.207C224.031 129.67 225.148 127.757 225.498 127.594C225.926 127.447 226.487 127.325 226.736 127.594C227.037 127.912 226.984 128.79 226.623 129.931C226.318 130.284 225.911 131.079 225.29 132.298C224.552 133.758 223.54 135.759 222.976 136.075L223.314 136.68C224.009 136.291 224.827 134.748 225.907 132.611C226.131 132.169 226.357 131.721 226.562 131.339L226.754 131.43L226.912 131.141C228.384 128.428 229.279 127.909 229.766 127.953C229.845 127.949 229.925 127.967 229.995 128.004C230.066 128.042 230.125 128.098 230.166 128.166C230.633 129.011 229.235 131.785 228.645 132.972C228.418 133.424 228.251 133.755 228.183 133.95C227.363 135.581 225.71 138.724 225.371 139.022C225.401 139.001 225.434 138.986 225.47 138.978L225.627 139.654C225.796 139.615 225.953 139.576 226.912 137.855L226.646 138.67L228.812 134.242C229.476 132.889 229.84 132.695 229.913 132.67C230.094 132.839 230.307 133.975 229.833 136.453C229.284 139.328 228.142 142.024 224.93 145.208C224.834 145.304 224.736 145.4 224.634 145.497L224.33 145.786C223.346 146.698 222.317 147.559 221.246 148.368L213.79 153.063L213.774 153.073L213.07 151.931L209.814 146.677L209.241 145.749L209.29 145.706ZM226.068 125.418C225.96 125.633 225.706 125.965 225.481 126.01C224.528 126.205 224.961 125.111 225.077 124.773C225.5 123.557 226.655 124.243 226.068 125.423V125.418ZM226.119 295.557L226 295.232L225.676 295.349C225.527 295.401 225.481 295.508 225.402 295.687C225.262 296 224.895 296.832 224.364 297.134C222.797 298.039 222.726 298.081 221.221 297.488C221.203 297.419 221.164 297.357 221.11 297.311C221.056 297.265 220.989 297.236 220.918 297.229C220.835 297.222 220.752 297.244 220.683 297.291C220.614 297.339 220.564 297.409 220.541 297.489C220.376 297.873 220.186 298.246 219.973 298.605C219.655 299.167 218.878 299.583 218.036 299.64C217.26 299.692 216.592 299.427 216.201 298.911C216.166 298.864 216.119 298.825 216.066 298.8C216.012 298.774 215.953 298.762 215.894 298.764C215.672 298.764 215.555 298.933 215.386 299.195C214.999 299.767 214.194 300.955 212.467 301.271C210.739 301.588 210.675 301.549 210.456 301.31C210.173 300.993 209.835 300.729 209.459 300.531L209.302 300.445L209.133 300.523C209.045 300.567 208.977 300.644 208.943 300.737C208.355 301.958 207.603 302.744 206.879 302.891C206.389 302.993 205.865 302.808 205.34 302.345C204.987 302.037 204.808 301.883 204.554 301.933C204.301 301.982 204.216 302.168 204.13 302.354C203.863 302.886 203.48 303.352 203.009 303.718C202.59 304.07 201.477 304.671 200.936 304.516C200.874 304.501 200.818 304.468 200.774 304.423C200.73 304.377 200.699 304.319 200.686 304.257C200.558 303.862 200.375 303.447 200.001 303.361C199.628 303.275 199.296 303.596 198.941 303.97C198.419 304.521 197.768 305.202 196.711 304.984C196.351 304.634 196.023 302.171 196.121 301.113C196.128 300.984 196.154 300.857 196.197 300.736H196.219L196.605 300.626L229.448 291.242L229.534 291.538L229.64 291.903L229.744 292.262L230.11 293.525C230.105 294.092 229.91 294.642 229.557 295.086C229.204 295.53 228.713 295.843 228.161 295.976C227.579 296.128 226.24 295.899 226.119 295.562V295.557ZM203.295 282.333C203.269 278.527 203.266 273.915 203.295 270.18L206.872 281.357L203.295 282.333ZM202.603 282.52L201.278 282.882C199.442 282.257 196.924 282.417 194.806 282.554C194.086 282.6 193.401 282.644 192.801 282.654C192.228 280.554 192.255 276.388 192.309 271.925C193.381 271.996 194.485 272.094 195.58 272.184C197.707 272.366 199.907 272.554 201.731 272.554V271.861C199.935 271.861 197.842 271.681 195.644 271.494C194.534 271.399 193.411 271.303 192.322 271.232C192.376 266.697 192.424 262.04 191.857 259.076C193.21 259.123 194.562 259.159 196.006 259.159C197.19 259.159 198.426 259.135 199.753 259.079L202.637 268.09C202.571 272.138 202.571 277.944 202.602 282.525L202.603 282.52ZM162.766 238.806C162.56 236.651 162.399 234.945 162.357 234.311C163.491 234.377 164.764 234.444 166.125 234.512L171.41 245.045C168.367 244.896 165.644 244.751 163.307 244.612C163.135 242.72 162.952 240.766 162.766 238.806ZM162.041 213.839C162.058 212.473 162.073 211.079 162.086 209.658C165.326 209.688 168.831 209.943 172.269 210.194L175.03 210.391C175.083 213.287 175.16 216.417 175.258 219.414C175.277 219.974 175.297 220.566 175.319 221.183C170.301 220.914 165.067 221.247 161.983 222.704C161.97 219.736 162.004 216.824 162.041 213.839ZM162.107 205.593C162.107 204.809 162.157 204.046 162.208 203.309C162.283 202.21 162.343 201.299 162.208 200.635C162.754 200.68 163.302 200.69 163.85 200.665C167.738 200.423 171.397 200.418 175.027 200.508C174.971 201.113 174.934 202.575 174.966 206.297C174.976 207.367 174.991 208.508 175.01 209.695L172.305 209.502C168.854 209.25 165.339 208.995 162.078 208.963C162.097 207.86 162.107 206.737 162.107 205.593ZM175.382 200.594L175.394 200.516H175.646C175.61 200.547 175.567 200.57 175.522 200.583C175.477 200.596 175.429 200.6 175.382 200.594ZM176.007 234.223C172.768 234.106 169.475 233.969 166.567 233.831L162.279 225.306C162.196 225.137 162.11 224.96 162.002 224.77C162.002 224.341 161.992 223.913 161.988 223.487C164.879 221.966 170.23 221.628 175.345 221.901C175.488 225.741 175.703 230.392 176.001 234.223H176.007ZM162.026 226.341L165.764 233.792C164.518 233.731 163.356 233.668 162.313 233.609C162.164 231.08 162.075 228.676 162.026 226.341ZM166.928 234.549C169.767 234.685 172.942 234.816 176.058 234.928C176.312 237.983 176.624 240.418 177.001 241.332C177.237 241.9 177.34 243.545 177.411 245.324L175.72 245.248C174.505 245.194 173.331 245.137 172.198 245.079L166.928 234.549ZM189.719 237.855C189.8 240.221 189.898 243.014 190.023 245.813C186.877 245.711 182.713 245.554 178.105 245.354C178.036 243.457 177.92 241.738 177.642 241.067C177.329 240.308 177.029 238.193 176.756 234.952C181.636 235.121 186.315 235.236 189.299 235.236H189.626C189.654 236.029 189.687 236.921 189.719 237.855ZM177.434 246.029C177.451 246.597 177.465 247.167 177.478 247.708C177.551 250.629 177.597 251.458 177.783 251.732L178.357 251.341L178.371 251.366C178.256 251.089 178.212 249.283 178.171 247.691C178.158 247.155 178.144 246.604 178.129 246.059C182.564 246.254 186.804 246.414 190.055 246.516C190.27 251.153 190.562 255.722 191.01 258.351L189.235 258.276C186.97 258.178 184.625 258.077 181.975 258.077V258.77C184.611 258.77 186.946 258.871 189.205 258.968L191.141 259.049C191.726 261.923 191.678 266.618 191.624 271.189C189.205 271.053 186.993 271.066 185.467 271.511L172.567 245.797C174.183 245.882 175.818 245.958 177.434 246.029ZM191.719 258.383C191.269 255.823 190.968 251.224 190.75 246.538C192.725 246.595 194.273 246.629 195.193 246.629C195.423 246.629 195.612 246.629 195.759 246.629L199.528 258.405C196.623 258.516 194.148 258.472 191.719 258.383ZM190.718 245.835C190.591 243.023 190.495 240.215 190.412 237.831C190.376 236.816 190.346 235.951 190.319 235.231C191.103 235.222 191.71 235.2 192.094 235.166L195.541 245.941C194.797 245.946 193.093 245.909 190.718 245.835ZM191.878 234.49C191.512 234.517 190.975 234.532 190.292 234.539C190.224 232.827 190.179 232.096 190.123 231.903L189.462 232.111C189.504 232.28 189.553 233.214 189.605 234.543C186.669 234.543 181.795 234.424 176.706 234.247C176.455 231.068 176.232 226.909 176.048 221.935C179.767 222.179 183.281 222.737 185.563 223.384L185.752 222.718C183.374 222.042 179.789 221.469 176.021 221.223C176.004 220.748 175.987 220.268 175.972 219.78C175.859 216.414 175.781 213.223 175.732 210.437C178.339 210.606 180.926 210.745 183.379 210.745C183.683 210.745 183.982 210.745 184.282 210.745L191.878 234.49ZM184.777 210.036L184.238 208.346L183.578 208.569L184.055 210.057C181.404 210.085 178.572 209.942 175.713 209.751C175.632 204.863 175.644 201.348 175.713 200.535C177.911 200.596 180.109 200.69 182.341 200.787C184.572 200.883 186.841 200.979 189.171 201.044C189.152 203.854 189.171 206.814 189.181 209.717C187.721 209.907 186.251 210.013 184.779 210.036H184.777ZM193.834 208.515C192.563 209.033 191.236 209.399 189.879 209.604C189.864 206.74 189.851 203.823 189.869 201.055C191.347 201.091 192.848 201.115 194.378 201.115V200.421C192.857 200.421 191.352 200.398 189.874 200.361C189.874 199.473 189.893 198.602 189.908 197.754L197.213 197.842L193.834 208.515ZM138.167 185.914C135.31 185.851 133.181 184.825 132.175 183.025C130.941 180.827 131.452 177.662 133.651 173.895C134.272 172.833 137.928 167.178 141.65 161.425L141.927 160.997L142.348 160.348C143.082 159.211 143.809 158.091 144.498 157.022C144.683 157.022 144.872 157.031 145.073 157.031C146.534 157.031 148.444 156.916 150.448 156.794C152.516 156.67 154.654 156.542 156.345 156.542H157.292C159.791 156.542 164.345 156.53 167.267 156.711L167.628 156.735L167.875 156.753C166.589 160.197 165.17 163.955 163.764 167.602C163.425 168.486 163.087 169.364 162.749 170.228C160.889 175.05 159.129 179.483 157.877 182.489L157.758 182.516L157.539 182.57L157.378 182.607L157.305 182.752V182.768C156.044 185.304 155.865 186.039 155.905 186.318L138.167 185.914ZM146.59 153.791C148.128 151.404 149.232 149.679 149.423 149.338C153.804 141.536 158.925 139.87 162.441 139.848H162.533C167.361 139.848 171.138 142.766 172 144.264C172.212 144.629 172.208 144.827 172.17 144.888L172.139 144.952C172.137 144.961 172.134 144.97 172.131 144.978C171.887 145.701 171.571 146.609 171.196 147.664C170.396 149.903 169.324 152.834 168.112 156.069L167.879 156.05L167.517 156.023C164.616 155.828 160.031 155.837 157.28 155.842H156.345C154.634 155.842 152.485 155.97 150.407 156.096C148.329 156.221 146.395 156.339 144.95 156.327L146.302 154.221L146.586 153.781L146.59 153.791ZM167.339 181.461C165.096 182.967 161.569 184.883 157.195 185.763L156.937 185.814L156.768 185.846L156.664 185.868C157.014 184.959 157.409 184.067 157.848 183.197H157.873L157.954 183.178L158.375 183.074C163.566 181.74 167.902 179.029 170.692 175.374C170.99 176.184 171.328 176.979 171.706 177.755C171.324 178.255 169.779 179.827 167.339 181.461ZM200.005 109.269C201.219 109.475 201.964 110.224 202.219 111.494C202.607 113.427 201.136 115.383 198.978 117.173L198.696 117.401C198.607 117.474 198.514 117.547 198.421 117.618C195.398 119.956 191.32 121.946 188.987 123.087L188.275 123.437L187.898 123.623L187.856 123.645C187.755 123.559 187.665 123.461 187.587 123.354C186.508 121.88 187.01 118.01 187.889 116.52C190.109 112.764 195.768 109.212 199.274 109.212C199.519 109.21 199.763 109.23 200.005 109.269ZM187.524 134.629C187.693 132.651 187.825 130.024 187.896 127.424C187.923 126.373 188.006 125.324 188.145 124.282C188.466 124.113 188.851 123.932 189.291 123.718C191.849 122.468 195.896 120.492 198.928 118.123C199.44 118.672 199.902 119.267 200.306 119.9C201.658 121.995 203.285 125.731 203.396 131.643C203.454 134.636 198.935 136.239 197.448 136.764C196.889 136.964 196.738 137.016 196.738 137.285C196.738 138.144 196.152 140.479 195.585 142.734C195.46 143.241 195.335 143.728 195.218 144.202C195.093 144.317 194.978 144.423 194.88 144.515C194.737 144.648 194.588 144.787 194.542 144.815C194.385 144.924 193.712 144.829 193.144 144.731C193.126 144.656 193.104 144.582 193.078 144.509C193.032 144.391 192.97 144.227 191.277 143.302L190.988 143.145L190.98 143.159C190.439 140.697 189.068 138.65 187.2 137.426C187.309 136.792 187.418 135.899 187.524 134.622V134.629ZM189.257 152.315C189.803 150.456 190.39 148.466 190.779 146.817C190.807 146.702 190.833 146.589 190.858 146.479C190.884 146.369 190.912 146.239 190.938 146.122C191.014 145.767 191.078 145.434 191.127 145.132C191.147 145.012 191.164 144.897 191.178 144.785C191.191 144.673 191.206 144.55 191.217 144.447C191.227 144.344 191.235 144.193 191.237 144.08C191.406 144.178 191.585 144.278 191.744 144.374L192.016 144.543C192.165 144.631 192.31 144.726 192.449 144.829C192.464 144.876 192.477 144.927 192.49 144.981C192.517 145.101 192.536 145.222 192.547 145.345C192.583 145.833 192.575 146.324 192.524 146.81C192.512 146.927 192.5 147.045 192.486 147.167C192.473 147.289 192.459 147.395 192.444 147.505C192.192 149.404 191.599 151.708 191.058 153.027C190.855 153.516 190.72 153.92 190.584 154.276C190.167 155.443 189.982 155.967 188.662 156.812C188.447 156.953 188.204 157.102 187.923 157.264C188.087 156.29 188.726 154.119 189.257 152.308V152.315ZM140.799 160.385C140.699 160.375 140.561 160.359 140.446 160.341C140.987 159.381 142.737 156.3 143.853 154.735C144.11 154.373 144.36 154.043 144.488 153.975C144.553 153.945 144.669 153.975 144.963 154.075C145.1 154.119 145.268 154.173 145.471 154.231L141.428 160.486C141.222 160.435 141.011 160.401 140.799 160.385ZM155.971 197.339L189.217 197.749C189.2 198.594 189.19 199.461 189.183 200.345C186.861 200.279 184.598 200.176 182.378 200.088C176.193 199.823 170.352 199.571 163.816 199.975C163.188 200.003 162.559 199.985 161.934 199.921C161.865 199.826 161.781 199.743 161.686 199.676C161.31 199.414 160.791 199.431 160.107 199.72L159.845 199.688C158.729 199.524 157.604 199.426 156.477 199.392V200.085C157.576 200.119 158.672 200.216 159.76 200.376C160.337 200.447 160.922 200.518 161.49 200.575C161.659 201.132 161.588 202.212 161.517 203.265C161.468 203.98 161.414 204.787 161.414 205.597C161.414 206.74 161.408 207.862 161.398 208.964C159.506 208.947 157.614 209.064 155.738 209.314C155.043 205.639 154.925 201.585 155.971 197.344V197.339ZM155.875 209.987C157.704 209.747 159.548 209.634 161.393 209.649C161.382 211.069 161.367 212.461 161.348 213.825C161.309 216.936 161.273 219.967 161.292 223.07C161.239 223.102 161.187 223.134 161.136 223.168C159.51 220.199 157.052 215.565 155.875 209.992V209.987ZM161.074 224.497L161.309 224.933C161.348 227.695 161.439 230.539 161.618 233.555C160.044 233.459 158.796 233.369 158.032 233.29L161.074 224.497ZM157.801 233.964C158.583 234.052 159.933 234.152 161.659 234.259V234.318C161.698 234.942 161.853 236.587 162.07 238.861C162.22 240.446 162.408 242.431 162.602 244.558C158.387 244.299 155.528 244.068 154.369 243.882L157.801 233.964ZM154.144 244.545C155.366 244.754 158.558 245.004 162.671 245.256C163.067 249.652 163.468 254.513 163.598 257.683C160.132 257.206 155.395 256.727 152.238 256.678C151.998 254.917 151.672 253.593 151.239 252.947L154.144 244.545ZM150.931 253.843C151.185 254.477 151.391 255.454 151.555 256.678C151.01 256.676 150.464 256.704 149.922 256.763L150.931 253.843ZM149.665 257.505C150.318 257.398 150.98 257.352 151.641 257.368C152.008 260.581 152.127 265.184 152.09 269.71C149.396 269.5 146.551 269.265 145.665 269.091L149.665 257.505ZM145.438 269.737C146.135 269.906 147.805 270.063 152.083 270.397C152.04 273.905 151.905 277.318 151.719 279.95L143.266 276.032L145.438 269.737ZM163.021 306.026C162.589 305.909 162.046 305.627 161.907 304.954L161.836 304.605L161.49 304.687C161.341 304.72 161.277 304.82 161.189 304.957C159.96 306.876 158.053 307.197 155.522 305.912C155.244 305.77 155.244 305.549 155.31 305.067C155.358 304.729 155.41 304.352 155.109 304.117C154.975 304.02 154.812 303.972 154.647 303.98C154.309 303.98 153.802 304.127 153.052 304.436C152.681 304.59 151.18 304.575 150.516 303.87C150.117 303.449 150.11 302.829 150.494 302.026C150.541 301.943 150.564 301.849 150.559 301.754C150.554 301.659 150.521 301.568 150.465 301.491C150.237 301.194 149.789 301.28 148.962 301.435C147.947 301.627 146.407 301.917 145.797 301.255C145.427 300.856 145.391 300.1 145.69 299.011C145.707 298.951 145.709 298.888 145.696 298.828C145.683 298.767 145.655 298.711 145.616 298.663C145.447 298.463 145.202 298.494 144.547 298.548C143.611 298.636 141.868 298.8 141.249 298.012C140.941 297.621 140.911 296.997 141.183 296.152L141.317 296.123L141.276 295.804C141.234 295.481 140.953 295.496 140.657 295.513C136.965 295.721 136.755 295.19 136.748 295.175C136.402 294.069 136.613 293.78 136.61 293.78L136.862 293.611L136.596 293.072L136.309 293.163C136.309 293.163 135.93 293.275 134.523 292.994C134.05 292.898 133.751 292.554 133.634 291.98C133.425 290.935 133.908 289.484 134.628 288.996C134.718 288.933 134.819 288.888 134.926 288.862C135.04 288.836 135.16 288.839 135.272 288.872C135.367 288.899 135.456 288.941 135.538 288.996C135.646 289.065 135.759 289.134 135.876 289.203C136.66 289.672 137.621 290.127 138.63 290.603C140.182 291.337 141.942 292.169 143.533 293.268C144.532 293.959 145.635 294.803 146.801 295.696C148.431 296.943 150.221 298.313 152.068 299.511C154.068 300.808 156.135 301.902 158.142 302.423C158.914 302.631 159.709 302.741 160.509 302.749C160.722 302.749 161.141 302.776 161.628 302.807C163.032 302.898 164.164 302.947 165.033 302.927C165.803 302.908 166.372 302.834 166.751 302.683C167.001 303.616 166.832 304.44 166.254 305.084C165.481 305.914 164.095 306.328 163.013 306.034L163.021 306.026ZM156.446 282.148L152.389 280.27C152.587 277.612 152.737 274.096 152.783 270.464L153.303 270.505C156.629 270.76 160.053 271.024 161.434 271.255L156.446 282.148ZM161.738 270.601C160.424 270.353 156.987 270.094 153.363 269.81L152.796 269.766C152.837 265.284 152.717 260.699 152.33 257.382C155.429 257.441 160.174 257.908 163.627 258.396C163.669 259.799 163.642 260.763 163.515 261.051L164.147 261.336C164.301 260.998 164.349 259.984 164.316 258.493C165.463 258.662 166.425 258.831 167.074 258.974L161.738 270.601ZM167.365 258.323C166.707 258.171 165.62 257.985 164.293 257.793C164.186 254.815 163.824 250.303 163.375 245.31C165.934 245.464 168.814 245.618 171.776 245.765L172.479 247.167L167.365 258.323ZM185.793 272.146C187.228 271.761 189.325 271.756 191.626 271.888C191.568 276.601 191.54 280.995 192.223 283.115L192.561 283.009V283.347C193.237 283.347 194.032 283.296 194.87 283.242C196.492 283.139 198.36 283.019 199.908 283.256L192.403 285.298L185.793 272.146Z" fill="#2A2A2B"/>
<path d="M243.367 170.084C243.675 167.394 242.892 165.212 241.222 164.096C240.551 163.656 239.772 163.41 238.97 163.386C238.169 163.362 237.376 163.56 236.681 163.959C235.189 164.789 234.109 165.068 233.468 164.789C232.802 164.498 232.581 163.606 232.346 162.645C232.092 161.617 231.83 160.554 230.922 160.173C230.131 159.844 229.039 160.119 227.482 161.042C226.934 161.369 226.525 161.484 226.266 161.381C225.918 161.247 225.733 160.664 225.537 160.045C225.179 158.909 224.692 157.353 222.638 157.791C221.858 157.96 221.324 157.938 221.049 157.736C220.773 157.533 220.71 157.036 220.656 156.479C220.587 155.712 220.501 154.758 219.578 154.281L219.26 154.897C219.804 155.179 219.891 155.707 219.967 156.542C220.026 157.205 220.088 157.894 220.643 158.293C221.098 158.632 221.779 158.684 222.788 158.463C224.151 158.172 224.479 158.951 224.881 160.248C225.118 160.995 225.362 161.769 226.024 162.021C226.503 162.204 227.081 162.079 227.842 161.627C229.155 160.846 230.106 160.569 230.658 160.802C231.245 161.048 231.455 161.898 231.673 162.799C231.926 163.824 232.212 164.985 233.194 165.413C234.067 165.793 235.282 165.519 237.019 164.554C237.603 164.218 238.269 164.049 238.943 164.068C239.617 164.087 240.273 164.292 240.838 164.66C242.285 165.628 242.956 167.572 242.679 169.995L243.367 170.084Z" fill="#2A2A2B"/>
<path d="M246.168 169.743L246.862 169.728C246.806 167.276 245.847 163.733 243.325 161.81C241.847 160.684 240.041 160.346 238.104 160.835L238.058 160.85C235.487 161.895 235.015 161.019 234.3 159.695C233.566 158.334 232.652 156.642 229.157 157.083L229.243 157.771C232.269 157.389 232.99 158.73 233.69 160.025C234.417 161.377 235.167 162.764 238.297 161.501C240.036 161.07 241.588 161.359 242.905 162.363C245.083 164.02 246.113 167.264 246.168 169.743Z" fill="#2A2A2B"/>
<path d="M269.989 137.068C266.131 153.438 285.794 164.265 299.239 163.831C312.683 163.397 318.069 148.958 321.072 131.101C324.075 113.245 311.661 102.985 297.072 105.679C283.402 108.202 273.848 120.698 269.989 137.068Z" fill="url(#paint1_linear_4_853)"/>
<defs>
<linearGradient id="paint0_linear_4_853" x1="168.811" y1="380.687" x2="65.0742" y2="125.3" gradientUnits="userSpaceOnUse">
<stop stop-color="#FAC7FF"/>
<stop offset="1" stop-color="#FFD2BE"/>
</linearGradient>
<linearGradient id="paint1_linear_4_853" x1="295.33" y1="83.6798" x2="307.294" y2="162.727" gradientUnits="userSpaceOnUse">
<stop stop-color="#FAC7FF"/>
<stop offset="1" stop-color="#FFD2BE"/>
</linearGradient>
</defs>
</svg>
