<svg width="375" height="275" viewBox="0 50 375 325" fill="none" xmlns="http://www.w3.org/2000/svg">
<g clip-path="url(#clip0_4_900)">
<path d="M260.19 124.013C256.658 139 274.66 148.912 286.967 148.514C299.275 148.117 304.206 134.899 306.956 118.551C309.705 102.204 298.34 92.8117 284.984 95.2773C272.469 97.5877 263.723 109.027 260.19 124.013Z" fill="url(#paint0_linear_4_900)"/>
<path d="M186.323 138.905C128.455 125.477 75.6485 191.554 75.8394 244.047C76.0302 296.54 150.161 281.031 203.159 318.123C249.203 350.348 303.415 298.314 295.3 241.576C287.697 188.411 244.191 152.334 186.323 138.905Z" fill="url(#paint1_linear_4_900)"/>
<path d="M257.693 219.154C258.091 219.157 258.489 219.16 258.886 219.162C258.828 219.23 258.791 219.31 258.791 219.401C258.791 228.564 258.791 237.728 258.791 246.892C258.274 246.892 257.756 246.892 257.239 246.892C257.264 246.843 257.28 246.79 257.28 246.732C257.28 239.913 257.28 233.094 257.28 226.275C257.28 226.153 257.233 226.064 257.158 226C257.483 223.731 257.778 221.41 257.693 219.154ZM265.92 219.313C265.92 228.506 265.92 237.699 265.92 246.892C266.514 246.892 267.108 246.892 267.701 246.892C267.701 237.728 267.701 228.565 267.701 219.401C267.701 219.315 267.735 219.24 267.788 219.174C267.156 219.176 266.525 219.175 265.893 219.176C265.909 219.216 265.92 219.26 265.92 219.313ZM259.98 219.313C259.98 228.506 259.98 237.699 259.98 246.892C260.574 246.892 261.168 246.892 261.761 246.892C261.761 237.728 261.761 228.565 261.761 219.401C261.761 219.315 261.795 219.24 261.848 219.174C261.215 219.172 260.582 219.169 259.949 219.167C259.967 219.21 259.98 219.256 259.98 219.313ZM271.822 219.147C271.828 219.16 271.834 219.172 271.839 219.187C271.856 219.172 271.876 219.16 271.896 219.147C271.872 219.147 271.847 219.147 271.822 219.147ZM262.925 219.177C262.94 219.218 262.95 219.261 262.95 219.313C262.95 228.506 262.95 237.699 262.95 246.892C263.544 246.892 264.138 246.892 264.731 246.892C264.731 237.728 264.731 228.565 264.731 219.401C264.731 219.316 264.764 219.242 264.816 219.177C264.249 219.177 263.682 219.179 263.115 219.178C263.051 219.178 262.988 219.178 262.925 219.177ZM278.542 231.221C278.523 231.223 278.502 231.225 278.487 231.225C278.072 231.226 277.657 231.227 277.242 231.229C277.25 231.258 277.254 231.291 277.254 231.326C277.254 236.462 277.254 241.597 277.254 246.733C277.254 246.791 277.238 246.843 277.212 246.892C277.658 246.892 278.104 246.892 278.551 246.892C278.547 246.869 278.542 246.847 278.542 246.821C278.542 241.621 278.542 236.421 278.542 231.221ZM268.89 219.313C268.89 228.506 268.89 237.699 268.89 246.892C269.484 246.892 270.078 246.892 270.671 246.892C270.671 237.728 270.671 228.565 270.671 219.401C270.671 219.307 270.71 219.225 270.772 219.156C270.135 219.16 269.498 219.167 268.861 219.17C268.879 219.212 268.89 219.258 268.89 219.313ZM248.126 228.532C248.101 228.516 248.082 228.495 248.076 228.465C247.438 225.493 247.178 222.415 247.27 219.38C247.275 219.202 247.529 219.07 247.799 219.003C247.8 219 247.8 218.998 247.801 218.995C247.279 218.982 246.757 218.965 246.236 218.949C246.236 228.21 246.236 237.472 246.236 246.733C246.236 246.791 246.22 246.843 246.194 246.892C246.841 246.892 247.488 246.892 248.135 246.892C248.131 246.869 248.126 246.847 248.126 246.821C248.126 240.725 248.126 234.628 248.126 228.532ZM284.056 218.904C283.419 218.926 282.78 218.938 282.142 218.957C282.208 220.324 282.127 221.715 281.981 223.106C281.802 224.814 281.528 226.521 281.302 228.178C281.285 228.303 281.123 228.393 280.942 228.452C280.763 228.511 280.566 228.539 280.476 228.539C280.223 228.54 279.971 228.542 279.719 228.543C279.706 228.85 279.668 229.16 279.613 229.469C279.686 229.532 279.731 229.622 279.731 229.741C279.731 235.405 279.731 241.069 279.731 246.733C279.731 246.791 279.715 246.843 279.689 246.893C280.121 246.893 280.552 246.893 280.983 246.893C281.363 246.893 281.742 246.893 282.122 246.893C282.599 246.893 283.075 246.893 283.551 246.893C283.948 246.893 284.344 246.893 284.74 246.893C285.364 246.893 285.987 246.893 286.611 246.893C286.611 237.599 286.611 228.306 286.611 219.013C286.611 218.934 286.649 218.864 286.709 218.801C285.825 218.84 284.94 218.874 284.056 218.904ZM250.774 231.234C250.654 231.235 250.534 231.235 250.414 231.235C250.316 231.235 250.115 231.247 250.072 231.124C249.791 230.304 249.669 229.434 249.689 228.571C249.564 228.572 249.439 228.572 249.315 228.573C249.315 234.626 249.315 240.679 249.315 246.733C249.315 246.791 249.298 246.843 249.273 246.892C249.776 246.892 250.279 246.892 250.783 246.892C250.779 246.869 250.774 246.847 250.774 246.821C250.774 241.625 250.774 236.43 250.774 231.234ZM273.359 228.575C273.197 228.576 273.034 228.576 272.872 228.577C272.787 228.578 272.557 228.589 272.53 228.465C272.216 227.001 271.994 225.511 271.86 224.013C271.86 231.64 271.86 239.265 271.86 246.892C272.363 246.892 272.865 246.892 273.368 246.892C273.364 246.869 273.359 246.847 273.359 246.821C273.359 240.739 273.359 234.657 273.359 228.575ZM253.48 231.226C252.975 231.227 252.469 231.229 251.963 231.231C251.963 236.398 251.963 241.565 251.963 246.733C251.963 246.791 251.947 246.843 251.921 246.892C252.444 246.892 252.966 246.892 253.489 246.892C253.485 246.869 253.48 246.847 253.48 246.821C253.48 241.623 253.48 236.424 253.48 231.226ZM256.091 228.534C256.065 228.537 256.039 228.539 256.021 228.539C255.769 228.54 255.517 228.542 255.264 228.543C255.232 229.32 255.022 230.122 254.86 230.863C254.842 230.945 254.767 231.01 254.67 231.063C254.67 236.286 254.67 241.509 254.67 246.733C254.67 246.791 254.653 246.843 254.628 246.892C255.118 246.892 255.609 246.892 256.1 246.892C256.096 246.869 256.091 246.847 256.091 246.821C256.091 240.725 256.091 234.63 256.091 228.534ZM276.118 231.231C275.702 231.233 275.285 231.234 274.869 231.235C274.779 231.235 274.611 231.24 274.548 231.149C274.548 236.344 274.548 241.538 274.548 246.733C274.548 246.791 274.532 246.843 274.506 246.892C275.029 246.892 275.551 246.892 276.074 246.892C276.07 246.869 276.065 246.847 276.065 246.821C276.065 241.686 276.065 236.55 276.065 231.415C276.065 231.347 276.085 231.286 276.118 231.231ZM245.046 218.914C244.816 218.906 244.584 218.902 244.353 218.893C243.941 218.879 243.53 218.863 243.117 218.847L243.096 218.847C243.096 228.195 243.096 237.544 243.096 246.892C243.749 246.892 244.402 246.892 245.055 246.892C245.051 246.869 245.046 246.847 245.046 246.821C245.046 237.518 245.046 228.216 245.046 218.914ZM190.871 235.697C190.032 235.954 189.177 236.149 188.309 236.275C189.138 236.266 190.006 236.047 190.871 235.697ZM195.054 224.167C193.766 218.055 193.213 211.246 189.411 206.041C186.29 201.768 181.731 198.882 176.786 196.73C176.887 199.714 177.39 202.735 177.72 205.687C178.397 211.765 179.095 217.841 179.757 223.921C179.909 225.316 180.066 226.714 180.225 228.114C180.242 228.112 180.259 228.109 180.276 228.109C185.748 228.093 190.56 227.326 195.133 224.313C195.095 224.275 195.066 224.227 195.054 224.167ZM180.313 228.891C180.555 231.009 180.797 233.13 181.03 235.255C186.426 236.669 192.176 236.042 196.258 231.965C196.607 231.616 197.603 230.811 197.614 230.303C197.654 228.328 197.455 226.158 196.434 224.422C191.472 227.903 186.25 228.83 180.313 228.891ZM161.162 195.912C161.491 196.387 161.819 196.862 162.148 197.338C162.732 195.623 163.315 193.907 163.898 192.192C163.832 191.206 163.874 190.236 164.01 189.279C162.535 190.477 161.061 191.674 159.586 192.872C159.425 193.003 159.309 193.128 159.222 193.258C159.26 193.271 159.295 193.287 159.319 193.307C160.063 193.919 160.618 195.128 161.162 195.912ZM150.314 197.745C151.147 196.705 151.988 195.672 152.854 194.661C153.306 194.134 153.98 193.093 154.734 192.53C154.638 192.458 154.518 192.377 154.365 192.274C152.183 190.805 150 189.338 147.83 187.853C147.599 189.045 147.325 190.227 147.039 191.387C147.023 191.454 146.98 191.513 146.922 191.565C146.997 191.632 147.045 191.725 147.045 191.852C147.045 193.963 148.836 196.133 150.314 197.745ZM169.986 194.257C169.983 194.243 169.984 194.231 169.983 194.218C168.249 193.666 166.527 193.165 164.855 192.691C164.197 194.626 163.539 196.561 162.881 198.496C162.776 198.804 161.977 199.13 161.749 198.798C161.145 197.921 160.539 197.045 159.931 196.17C159.586 195.674 159.236 194.997 158.828 194.436C158.798 194.558 158.765 194.686 158.725 194.829C158.293 196.357 157.859 197.886 157.412 199.41C157.408 199.437 157.408 199.463 157.404 199.49C157.404 199.49 157.404 199.49 157.404 199.491C156.995 205.534 156.587 211.576 156.178 217.618C156.778 217.623 157.38 217.623 157.983 217.619C156.599 215.718 155.561 213.707 157.544 211.917C158.568 210.993 159.92 210.44 160.865 209.432C162.41 207.784 161.856 205.766 160.981 203.915C160.884 203.711 162.016 203.309 162.154 203.601C162.963 205.312 163.531 207.174 162.364 208.846C161.64 209.882 160.421 210.475 159.417 211.189C157.808 212.334 157.133 214.208 158.216 216.052C158.549 216.618 158.943 217.12 159.349 217.604C160.418 217.584 161.488 217.547 162.557 217.489C162.068 215.924 162.22 214.32 163.64 212.779C164.642 211.694 165.882 210.721 166.555 209.379C167.607 207.281 167.137 205.047 166.335 202.944C166.159 202.483 167.324 202.147 167.508 202.631C168.862 206.176 168.504 209.12 165.819 211.823C164.875 212.773 163.587 213.826 163.418 215.245C163.329 215.995 163.461 216.721 163.721 217.417C166.32 217.234 168.903 216.905 171.433 216.356C171.413 212.293 171.222 208.227 170.966 204.174C170.76 200.9 170.692 197.475 169.986 194.257ZM156.224 199.608C156.486 197.691 155.994 195.701 155.409 193.88C155.351 193.703 155.309 193.558 155.271 193.434C155.012 193.707 154.757 193.985 154.509 194.268C153.973 194.88 153.446 195.499 152.928 196.126C152.208 196.995 151.495 197.87 150.793 198.754C150.552 199.057 150.031 199.117 149.762 198.83C148.141 197.098 146.008 194.683 145.868 192.187C145.76 192.205 145.653 192.226 145.546 192.246C143.163 200.019 141.759 208.024 141.238 216.133C141.712 216.445 142.333 216.634 142.99 216.756C143.205 216.79 143.432 216.825 143.668 216.861C144.401 216.954 145.131 216.993 145.709 217.058C148.461 217.37 151.232 217.534 154 217.589C154.335 217.595 154.671 217.6 155.006 217.606C155.412 211.607 155.818 205.608 156.223 199.61C156.224 199.609 156.224 199.608 156.224 199.608ZM123.64 203.663C118.928 208.562 118.945 215.57 116.427 221.549C116.419 221.567 116.412 221.586 116.404 221.605C116.401 221.611 116.399 221.618 116.396 221.624C116.305 221.838 115.83 221.968 115.513 221.966C115.476 221.997 115.437 222.031 115.395 222.068C114.368 222.968 111.836 225.333 112.399 226.32C112.59 226.655 113.2 227.131 113.984 227.647C114.917 228.26 116.096 228.928 117.121 229.482C118.403 230.174 119.44 230.687 119.44 230.687L129.265 233.042L133.788 234.127C133.81 233.821 133.833 233.514 133.854 233.207C133.871 232.965 133.889 232.723 133.906 232.481C134.044 230.46 134.171 228.438 134.302 226.417C134.317 226.193 134.332 225.97 134.347 225.746C134.61 221.732 134.894 217.72 135.309 213.717C135.751 209.464 136.25 205.182 137.204 201.008C137.743 198.647 138.344 196.054 139.717 193.996C138.259 194.678 135.275 196.096 132.317 197.628C129.27 199.314 125.998 201.211 123.64 203.663Z" fill="#2A2A2B"/>
<path d="M298.656 258.332C298.325 258.332 297.994 258.332 297.663 258.332C297.663 254.58 297.663 250.828 297.663 247.076C297.663 247.032 297.644 246.997 297.611 246.97C297.571 246.923 297.479 246.892 297.307 246.892C295.226 246.892 293.145 246.892 291.064 246.892C291.064 237.494 291.064 228.096 291.064 218.698C291.064 218.602 290.973 218.551 290.843 218.534C291.721 218.473 292.916 218.429 293.578 217.883C293.595 217.869 293.603 217.858 293.607 217.847C293.613 217.841 293.621 217.835 293.627 217.828C294.063 217.289 294.039 216.303 294.086 215.658C294.208 213.973 294.159 212.27 294.125 210.583C294.055 206.977 293.832 203.369 293.896 199.761C293.924 198.208 294.231 196.782 293.462 195.336C292.607 193.728 290.556 193.07 288.913 192.661C287.35 192.273 285.606 192.304 284.008 192.225C271.074 191.581 257.933 191.554 245.002 192.29C243.269 192.389 241.488 192.472 239.832 193.041C238.457 193.514 237.24 194.127 236.28 195.239C235.17 196.525 235.522 198.224 235.58 199.759C235.713 203.313 235.454 206.889 235.369 210.441C235.329 212.07 235.307 213.701 235.365 215.329C235.393 216.123 235.31 217.428 235.847 218.093C236.256 218.597 237.791 218.518 238.347 218.567C238.643 218.593 238.941 218.614 239.237 218.636C239.042 218.721 238.888 218.851 238.888 219.012C238.888 228.305 238.888 237.598 238.888 246.892C236.107 246.892 233.326 246.892 230.545 246.892C230.503 246.892 230.457 246.899 230.41 246.91C230.068 246.87 229.465 247.071 229.465 247.39C229.465 251.037 229.465 254.684 229.465 258.332C213.839 258.332 198.213 258.332 182.587 258.332C182.598 258.3 182.605 258.266 182.605 258.231C182.596 254.421 182.412 250.604 182.127 246.787C185.469 249.594 189.328 251.707 193.8 251.859C197.951 252 201.855 250.124 205.075 247.661C212.981 241.613 217.971 231.882 221.933 222.99C225.37 220.87 228.137 217.503 230.319 214.168C231.596 212.215 234.303 207.778 231.603 205.866C231.56 205.835 231.507 205.816 231.45 205.805C231.522 205.569 231.588 205.33 231.644 205.089C231.86 204.15 231.612 202.844 230.369 203.176C229.81 203.325 229.354 203.748 228.954 204.219C230.011 201.94 230.498 199.802 228.42 200.056C227.345 200.187 226.563 200.824 225.93 201.687C226.833 199.229 227.247 196.892 225.515 196.906C223.581 196.923 222.822 198.701 221.998 200.169C220.912 202.102 220.001 204.186 218.862 206.106C218.835 205.977 218.806 205.851 218.786 205.711C218.45 203.436 218.592 199.78 215.28 200.996C213.055 201.814 212.462 204.631 212.218 206.703C211.938 209.076 211.648 212.247 212.66 214.505C212.666 214.518 212.676 214.528 212.685 214.538C212.548 214.597 212.444 214.674 212.422 214.761C211.7 217.598 210.616 220.249 208.653 222.463C207.231 224.066 205.366 225.19 203.557 226.3C201.709 227.434 200.133 228.661 198.82 230.085C198.986 229.572 198.756 228.501 198.725 228.091C198.595 226.428 198.171 224.796 197.167 223.446C197.041 223.277 196.45 223.415 196.179 223.605C194.874 217.319 194.202 210.621 190.304 205.284C184.637 197.527 173.882 194.292 165.069 191.802C164.968 190.102 165.217 188.401 165.746 186.783C165.764 186.725 165.769 186.674 165.767 186.628C165.966 186.618 166.165 186.608 166.358 186.599C170.488 186.412 175.91 185.476 178.254 181.624C180.358 178.167 180.146 172.501 177.382 169.423C177.373 168.363 177.25 167.342 177.042 166.347C177.816 164.787 177.932 162.756 177.262 161.059C176.508 159.524 175.381 158.452 174.019 158.103C173.889 157.791 173.76 157.479 173.635 157.166C173.622 157.133 173.605 157.104 173.585 157.078C173.851 157.014 174.117 156.945 174.381 156.862C177.735 155.815 179.254 152.312 178.593 148.998C177.404 143.046 168.612 145.684 165.128 148.636C163.149 143.919 156.597 147.794 153.789 149.712C151.392 151.349 148.932 152.758 146.467 154.282C144.151 155.713 142.891 157.616 143.429 160.263C141.444 160.249 139.608 161.094 139.639 163.493C139.671 166.1 140.816 168.949 142.357 171.14C140.07 171.419 138.514 173.367 139.298 176.236C140.115 179.23 144.348 179.186 146.936 178.497C147.49 181.257 147.321 184.087 146.853 186.87C146.794 186.947 146.773 187.03 146.812 187.112C146.553 188.599 146.215 190.072 145.86 191.512C145.845 191.574 145.852 191.625 145.875 191.667C145.674 191.703 145.474 191.743 145.275 191.782C145.12 191.78 144.939 191.814 144.782 191.877C137.383 193.462 130.53 197.68 124.481 202.026C117.982 206.695 118.122 214.785 115.33 221.552C113.699 222.646 111.356 224.379 111.896 226.621C112.222 227.974 113.564 228.886 114.937 229.537C114.798 229.612 114.696 229.714 114.69 229.832C114.25 237.937 108.22 250.087 116.788 255.882C118.714 257.185 120.895 257.955 123.17 258.33C113.218 258.33 103.266 258.33 93.3132 258.33C93.0511 258.33 91.9705 258.835 92.5594 258.835C138.211 258.835 183.862 258.835 229.514 258.835C229.628 258.932 229.924 258.921 230.183 258.835C238.205 258.835 246.225 258.835 254.246 258.835C268.344 258.835 282.441 258.835 296.538 258.835C296.652 258.932 296.948 258.921 297.208 258.835C297.439 258.835 297.671 258.835 297.902 258.835C298.164 258.836 299.245 258.332 298.656 258.332ZM196.188 236.606C197.024 233.919 198.239 231.481 200.239 229.466C201.736 227.959 203.626 226.902 205.417 225.792C209.774 223.095 212.313 219.559 213.583 214.571C213.594 214.527 213.577 214.494 213.543 214.468C213.735 214.383 213.87 214.276 213.833 214.192C213.166 212.705 213.212 210.806 213.21 209.216C213.207 206.904 213.438 204.339 214.637 202.306C215.006 201.679 215.697 200.937 216.555 201.461C216.982 201.721 217.096 202.436 217.196 202.87C217.553 204.427 217.518 206.054 217.888 207.612C217.881 207.621 217.875 207.632 217.868 207.642C217.774 207.773 217.836 207.847 217.967 207.878C218.235 208.653 218.863 209.323 219.234 210.041C219.977 211.481 219.406 213.138 218.842 214.53C218.749 214.758 219.877 214.64 220.002 214.331C220.615 212.816 221.073 211.297 220.407 209.728C219.995 208.756 219.546 208.075 219.21 207.255C220.133 205.884 220.854 204.354 221.617 202.898C221.992 202.182 224.04 197.204 225.176 197.541C227.043 198.094 222.817 206.206 222.28 207.275C222.186 207.464 222.619 207.485 222.989 207.385C223.27 207.399 223.781 207.29 223.903 207.153C224.625 206.342 225.076 205.269 225.582 204.321C225.95 203.631 226.328 202.948 226.729 202.277C226.912 201.973 227.11 201.679 227.313 201.387C227.454 201.185 228.159 200.607 227.84 200.553C230.868 201.067 225.607 208.378 224.918 209.407C224.899 209.435 224.93 209.455 224.99 209.467C225.097 209.503 225.343 209.486 225.573 209.438C225.661 209.42 225.746 209.397 225.822 209.369C225.915 209.337 225.99 209.299 226.028 209.26C226.029 209.259 226.03 209.258 226.031 209.256C226.049 209.24 226.065 209.223 226.077 209.205C226.077 209.204 226.078 209.203 226.079 209.202C226.865 208.365 227.521 207.396 228.207 206.479C228.826 205.651 229.48 204.537 230.304 203.794C231.668 205.089 228.275 210.223 227.674 211.138C227.594 211.26 228.644 211.214 228.831 210.929C229.673 209.648 230.496 208.289 231.077 206.849C232.774 208.785 229.985 212.886 228.948 214.47C226.933 217.55 224.237 220.673 221.058 222.6C220.868 222.716 220.812 222.823 220.835 222.913C217.231 231 212.881 239.196 206.443 245.41C203.412 248.335 199.679 250.685 195.405 251.092C190.438 251.564 185.884 248.734 182.349 245.562C182.273 245.493 182.156 245.465 182.026 245.464C181.772 242.299 181.453 239.136 181.109 235.978C183.512 236.494 185.952 236.618 188.308 236.274C189.176 236.148 190.031 235.953 190.87 235.696C192.769 235.114 194.578 234.196 196.22 232.882C196.653 232.536 197.07 232.16 197.465 231.763C196.439 233.216 195.625 234.864 195.025 236.794C194.936 237.084 196.088 236.927 196.188 236.606ZM189.411 206.041C193.213 211.246 193.766 218.056 195.054 224.167C195.066 224.227 195.095 224.275 195.133 224.313C190.56 227.327 185.748 228.093 180.276 228.109C180.259 228.109 180.242 228.112 180.225 228.114C180.066 226.714 179.909 225.316 179.757 223.922C179.094 217.841 178.397 211.765 177.72 205.687C177.39 202.735 176.887 199.714 176.786 196.731C181.73 198.882 186.29 201.768 189.411 206.041ZM197.614 230.302C197.604 230.81 196.608 231.615 196.258 231.964C192.176 236.042 186.426 236.668 181.03 235.255C180.797 233.13 180.554 231.008 180.313 228.89C186.25 228.829 191.472 227.902 196.434 224.421C197.455 226.158 197.654 228.328 197.614 230.302ZM141.238 216.133C141.758 208.025 143.162 200.019 145.546 192.246C145.653 192.226 145.76 192.205 145.867 192.187C146.007 194.684 148.141 197.098 149.762 198.83C150.03 199.117 150.551 199.057 150.792 198.754C151.494 197.871 152.208 196.996 152.927 196.126C153.446 195.5 153.973 194.88 154.509 194.268C154.757 193.985 155.012 193.707 155.271 193.434C155.308 193.559 155.351 193.703 155.408 193.88C155.993 195.702 156.485 197.691 156.224 199.608C156.224 199.609 156.223 199.609 156.223 199.61C155.818 205.608 155.412 211.607 155.006 217.606C154.671 217.601 154.335 217.595 154 217.589C151.232 217.534 148.461 217.37 145.709 217.059C145.131 216.993 144.401 216.954 143.668 216.861C143.432 216.825 143.205 216.79 142.99 216.757C142.332 216.634 141.712 216.445 141.238 216.133ZM143.809 171.18C143.799 171.165 143.787 171.149 143.777 171.134C144.041 171.096 144.342 171.144 144.659 171.368C144.651 171.373 144.642 171.377 144.634 171.382C144.356 171.294 144.08 171.225 143.809 171.18ZM156.611 168.007C157.537 170.678 160.514 172.522 163.171 171.17C165.323 170.075 165.979 167.646 165.647 165.421C165.804 165.388 165.943 165.345 166 165.308C166.465 164.991 166.956 164.776 167.518 164.706C167.542 164.703 167.583 164.698 167.628 164.693C168.215 165.721 169.407 166.486 170.266 167.189C170.781 167.612 171.383 168.074 171.701 168.673C172.239 169.683 170.381 169.995 169.777 170.145C169.349 170.251 169.247 170.528 169.381 170.699C167.322 171.267 165.373 172.127 163.324 172.779C160.635 173.634 158.29 173.609 156.396 171.375C155.198 169.961 154.287 168.361 153.136 166.92C154.19 166.919 155.236 166.875 156.315 166.711C156.37 167.152 156.466 167.588 156.611 168.007ZM164.039 164.102C164.84 166.113 164.844 168.478 163.288 170.14C161.276 172.288 158.588 169.643 157.785 167.693C157 165.788 157.446 163.513 158.896 162.06C160.912 160.039 163.113 162.191 164.039 164.102ZM175.908 166.806C175.38 167.911 174.458 168.604 173.017 168.228C172.967 168.214 172.886 168.221 172.793 168.238C172.735 168.119 172.665 167.996 172.569 167.867C171.95 167.036 170.884 166.411 169.99 165.682C170.07 165.621 170.113 165.557 170.085 165.503C169.465 164.305 169.325 163.014 169.604 161.763C169.71 161.746 169.811 161.714 169.886 161.68C170.553 161.371 171.184 161.373 171.89 161.536C172.166 161.6 172.514 161.508 172.72 161.315C172.904 161.143 172.847 160.929 172.601 160.872C171.656 160.653 170.724 160.675 169.826 160.992C169.911 160.763 170.007 160.535 170.12 160.312C170.686 159.193 171.762 158.485 172.91 158.567C174.06 161.29 175.349 163.94 175.908 166.806ZM173.502 173.9C172.464 176.733 168.808 177.719 166.979 175.311C169.306 175.536 171.331 174.865 173.502 173.9ZM162.772 158.16C162.265 158.492 161.7 158.724 161.096 158.876C161.705 158.662 162.276 158.407 162.772 158.16ZM169.986 194.257C170.691 197.474 170.76 200.899 170.967 204.173C171.223 208.227 171.414 212.293 171.433 216.355C168.903 216.905 166.32 217.233 163.721 217.416C163.462 216.72 163.33 215.994 163.419 215.245C163.587 213.826 164.876 212.772 165.819 211.822C168.504 209.12 168.862 206.176 167.509 202.63C167.324 202.147 166.159 202.483 166.335 202.944C167.138 205.046 167.608 207.28 166.555 209.378C165.882 210.72 164.642 211.693 163.641 212.779C162.22 214.319 162.068 215.923 162.557 217.488C161.488 217.547 160.418 217.584 159.349 217.603C158.943 217.119 158.549 216.618 158.216 216.051C157.134 214.208 157.808 212.333 159.418 211.189C160.422 210.475 161.64 209.881 162.364 208.845C163.531 207.174 162.964 205.311 162.154 203.601C162.016 203.308 160.884 203.711 160.981 203.915C161.857 205.765 162.41 207.784 160.866 209.431C159.921 210.439 158.569 210.993 157.544 211.917C155.562 213.706 156.6 215.717 157.983 217.619C157.381 217.622 156.779 217.623 156.178 217.618C156.587 211.576 156.996 205.533 157.405 199.491C157.405 199.49 157.405 199.489 157.405 199.489C157.408 199.462 157.409 199.436 157.412 199.41C157.86 197.885 158.293 196.357 158.725 194.829C158.766 194.686 158.799 194.557 158.828 194.436C159.236 194.997 159.587 195.673 159.932 196.17C160.539 197.044 161.145 197.921 161.749 198.798C161.977 199.129 162.776 198.803 162.881 198.496C163.539 196.56 164.197 194.625 164.855 192.69C166.527 193.164 168.25 193.665 169.983 194.217C169.984 194.231 169.983 194.243 169.986 194.257ZM163.898 192.191C163.314 193.907 162.731 195.622 162.148 197.338C161.819 196.862 161.491 196.387 161.162 195.912C160.618 195.128 160.062 193.919 159.319 193.307C159.294 193.287 159.26 193.271 159.221 193.259C159.309 193.128 159.424 193.003 159.586 192.872C161.06 191.674 162.535 190.476 164.01 189.279C163.873 190.236 163.832 191.206 163.898 192.191ZM147.039 191.387C147.325 190.227 147.599 189.045 147.83 187.853C150.001 189.338 152.184 190.805 154.366 192.273C154.518 192.376 154.638 192.458 154.734 192.53C153.981 193.093 153.307 194.135 152.855 194.661C151.988 195.672 151.147 196.705 150.314 197.745C148.836 196.134 147.046 193.964 147.046 191.852C147.046 191.725 146.998 191.632 146.923 191.565C146.98 191.512 147.023 191.453 147.039 191.387ZM164.151 188.464C163.998 188.494 163.862 188.54 163.796 188.593C162.028 190.029 160.26 191.465 158.492 192.901C157.991 193.309 157.958 193.594 157.775 194.241C157.598 194.871 157.42 195.499 157.242 196.128C157.1 195.4 156.91 194.678 156.705 193.968C156.522 193.33 156.413 192.413 155.827 192.019C153.223 190.269 150.616 188.522 148.03 186.744C148.381 184.652 148.568 182.535 148.417 180.438C149.244 182.044 150.292 183.505 151.891 184.618C155.29 186.985 160.386 186.883 164.615 186.684C164.423 187.273 164.27 187.867 164.151 188.464ZM176.192 169.575C176.162 169.644 176.158 169.717 176.194 169.79C176.193 170.044 176.188 170.294 176.158 170.549C176.154 170.584 174.474 170.29 174.399 170.277C173.515 170.12 172.593 170.119 171.696 170.223C172.383 169.893 172.939 169.437 172.938 168.81C174.219 168.915 175.272 168.474 176.058 167.713C176.141 168.323 176.19 168.942 176.192 169.575ZM176.087 161.374C176.37 162.092 176.52 163.157 176.474 164.238C175.929 162.539 175.208 160.889 174.492 159.22C175.195 159.777 175.702 160.59 176.087 161.374ZM172.46 157.48C172.529 157.653 172.601 157.826 172.672 157.999C172.146 158.046 171.596 158.188 171.027 158.449C169.118 159.323 168.225 161.423 168.308 163.44C167.948 163.32 167.249 163.583 167.332 163.95C167.364 164.09 167.411 164.224 167.465 164.356C166.806 164.479 166.163 164.7 165.575 165.021C165.488 164.595 165.369 164.179 165.213 163.787C164.011 161.309 161.729 159.643 159.018 161.042C157.12 162.022 156.22 164.039 156.264 166.056C155.004 166.249 153.782 166.243 152.536 166.214C152.472 166.144 152.41 166.072 152.345 166.004C153.098 163.787 153.466 161.415 153.172 159.085C156.908 159.636 161.75 160.382 164.553 157.523C167.196 157.396 169.841 157.693 172.443 157.301C172.431 157.357 172.435 157.417 172.46 157.48ZM141.236 177.088C140.409 176.399 140.257 175.303 140.311 174.3C140.403 172.61 141.495 171.81 142.912 171.885C142.916 171.89 142.92 171.895 142.923 171.899C143.017 172.016 143.257 172.019 143.492 171.961C143.682 172 143.876 172.05 144.073 172.118C144.199 172.161 144.375 172.136 144.541 172.074C145.698 173.8 146.425 175.776 147.202 177.709C145.316 178.395 142.845 178.432 141.236 177.088ZM116.425 254.302C113.191 251.466 113.216 246.905 113.726 242.993C114.297 238.616 115.572 234.355 115.85 229.937C116.254 230.101 116.642 230.245 116.985 230.373C120.771 231.782 125.071 232.664 129.265 233.042L119.441 230.686C119.441 230.686 118.403 230.173 117.122 229.481C115.961 229.036 114.85 228.46 113.984 227.646C113.2 227.131 112.59 226.654 112.399 226.319C111.836 225.332 114.368 222.967 115.395 222.067C115.437 222.03 115.476 221.996 115.513 221.965C115.831 221.968 116.306 221.837 116.396 221.624C116.399 221.617 116.402 221.611 116.404 221.604C116.413 221.585 116.419 221.567 116.428 221.548C118.946 215.569 118.928 208.561 123.64 203.663C125.998 201.211 129.27 199.314 132.319 197.628C132.784 197.37 133.246 197.117 133.697 196.868C135.635 195.799 137.655 194.791 139.74 193.962C139.733 193.973 139.726 193.984 139.718 193.995C138.345 196.053 137.744 198.646 137.205 201.008C136.251 205.182 135.752 209.463 135.31 213.716C134.895 217.719 134.611 221.732 134.348 225.746C134.333 225.969 134.318 226.193 134.304 226.416C134.172 228.437 134.044 230.459 133.907 232.48C133.89 232.722 133.872 232.964 133.855 233.207C133.834 233.514 133.811 233.82 133.79 234.126C133.683 235.612 133.572 237.097 133.446 238.581C129.429 239.219 125.437 239.966 121.567 241.277C120.879 241.51 121.04 242.175 121.744 241.937C131.388 238.671 141.79 238.893 151.436 235.626C151.485 235.609 151.521 235.586 151.562 235.566C151.67 235.535 151.765 235.49 151.828 235.428C151.918 235.339 152.01 235.251 152.102 235.163C152.224 235.1 152.319 235.015 152.355 234.919C154.997 232.409 157.992 230.185 161.475 229.007C162.693 228.596 167.188 227.654 167.856 229.429C167.862 229.445 167.862 229.46 167.867 229.476C167.864 229.594 167.865 229.712 167.862 229.83C167.614 230.624 165.867 231.276 165.344 231.712C164.806 232.161 165.969 232.255 166.305 231.975C166.628 231.705 167.216 231.461 167.768 231.162C169.029 232.057 168.606 234.003 167.182 234.646C166.435 234.983 167.123 235.333 167.638 235.101C167.905 234.981 168.154 234.838 168.385 234.675C169.62 235.576 169.195 237.504 167.779 238.143C167.559 238.243 167.466 238.342 167.454 238.429C167.397 238.51 167.407 238.589 167.538 238.647C168.193 238.936 168.752 239.342 168.855 240.09C168.907 240.468 168.773 240.824 168.549 241.147C168.453 241.18 168.375 241.219 168.331 241.263C167.971 241.622 167.604 241.955 167.233 242.278C167.047 242.345 166.888 242.462 166.834 242.615C164.962 244.157 162.909 245.267 160.466 245.927C158.132 246.558 155.746 246.945 153.422 247.619C153.243 247.612 153.052 247.643 152.925 247.72C147.285 251.157 141.589 254.633 135.251 256.643C129.23 258.553 121.456 258.713 116.425 254.302ZM143.653 227.487C145.849 227.487 148.045 227.487 150.242 227.487C150.488 227.487 150.677 227.371 150.775 227.227C150.858 229.77 151.201 232.316 151.189 234.853C151.12 234.92 151.05 234.987 150.982 235.053C148.539 235.863 146.049 236.456 143.535 236.94C143.58 236.876 143.606 236.803 143.602 236.721C143.431 233.629 144.255 230.548 143.653 227.487ZM167.881 228.094C166.824 227.665 165.314 227.715 164.377 227.737C159.905 227.844 155.684 230.754 152.36 233.758C152.295 231.413 151.997 229.063 151.947 226.715C157.264 226.715 162.58 226.715 167.896 226.715C167.895 227.174 167.886 227.634 167.881 228.094ZM165.908 247.842C162.218 249.203 157.614 249.059 153.866 248.01C156.598 247.253 159.442 246.874 162.122 245.951C163.794 245.376 165.286 244.568 166.665 243.575C166.431 245.001 166.175 246.422 165.908 247.842ZM136.968 258.332C134.844 258.332 132.721 258.332 130.597 258.332C132.038 258.128 133.45 257.829 134.791 257.456C141.346 255.635 147.281 251.996 153.046 248.479C157.166 249.598 161.965 249.539 166.041 248.151C166.342 248.311 167.022 248.127 167.091 247.756C167.411 246.053 167.725 244.35 167.991 242.638C168.884 242.034 169.82 241.266 170.019 240.164C170.176 239.295 169.532 238.663 168.83 238.272C169.522 237.828 170.048 237.206 170.265 236.369C170.528 235.351 169.982 234.456 169.111 233.989C169.364 233.668 169.557 233.299 169.667 232.872C169.918 231.904 169.438 231.046 168.642 230.562C168.942 230.274 169.127 229.93 169.075 229.499C169.069 229.447 169.053 229.402 169.043 229.353C169.055 228.741 169.059 228.13 169.063 227.518C170.083 227.518 171.102 227.518 172.122 227.518C172.123 227.518 172.123 227.518 172.124 227.518C172.272 235.103 174.957 244.235 170.643 251.076C168.426 254.592 163.497 255.215 159.704 255.411C155.392 255.635 150.573 254.981 146.901 252.582C146.5 252.32 145.45 252.875 145.988 253.227C149.607 255.591 154.254 256.308 158.51 256.237C162.415 256.171 166.885 255.621 170.065 253.145C173.444 250.514 174.025 245.382 174.112 241.456C174.221 236.626 173.338 231.842 173.301 227.019C173.298 226.677 172.891 226.607 172.554 226.705C172.473 226.655 172.361 226.625 172.216 226.625C171.168 226.625 170.121 226.625 169.074 226.625C169.074 226.501 169.078 226.377 169.078 226.253C169.078 226.212 169.069 226.177 169.055 226.146C169.07 226.02 168.977 225.923 168.7 225.923C162.985 225.923 157.271 225.923 151.557 225.923C151.528 225.923 151.499 225.927 151.47 225.931C151.139 225.937 150.754 226.119 150.755 226.378C150.756 226.514 150.762 226.651 150.764 226.787C150.686 226.709 150.552 226.657 150.352 226.657C148.102 226.657 145.852 226.657 143.601 226.657C143.37 226.657 143.191 226.76 143.088 226.892C142.734 226.914 142.341 227.158 142.419 227.497C143.121 230.572 142.238 233.694 142.41 236.803C142.418 236.949 142.49 237.05 142.594 237.115C139.955 237.597 137.295 237.982 134.641 238.392C135.311 230.487 135.628 222.557 136.394 214.659C136.8 210.47 137.308 206.282 138.129 202.152C138.686 199.351 139.31 196.041 141.127 193.737C141.232 193.605 141.252 193.495 141.222 193.407C142.245 193.05 143.284 192.743 144.334 192.496C141.964 200.257 140.569 208.25 140.055 216.344C140.007 216.466 140.032 216.597 140.186 216.716C141.222 217.513 142.965 217.607 144.2 217.785C147.011 218.192 149.865 218.338 152.701 218.432C154.669 218.497 156.657 218.53 158.649 218.505C159.437 219.532 160.202 220.51 160.494 221.382C160.588 221.661 161.751 221.316 161.667 221.068C161.324 220.042 160.731 219.243 160.09 218.476C161.024 218.45 161.957 218.407 162.889 218.349C163.382 219.43 164.13 220.482 164.922 221.471C165.222 221.847 166.347 221.409 166.002 220.978C165.351 220.165 164.625 219.252 164.103 218.263C166.773 218.051 169.424 217.686 172.016 217.098C172.319 217.073 172.629 216.894 172.628 216.618C172.619 212.439 172.413 208.26 172.157 204.089C171.967 200.974 171.885 197.731 171.297 194.646C172.733 195.127 174.17 195.647 175.582 196.222C175.625 199.124 176.111 202.064 176.428 204.94C177.086 210.893 177.771 216.842 178.426 222.796C178.89 227.02 179.403 231.268 179.871 235.525C179.79 235.594 179.775 235.654 179.885 235.685C179.886 235.685 179.887 235.685 179.889 235.685C180.716 243.223 181.4 250.794 181.418 258.328C181.418 258.33 181.419 258.33 181.419 258.331C166.602 258.332 151.785 258.332 136.968 258.332ZM287.785 246.892C287.785 237.51 287.785 228.128 287.785 218.746C288.678 218.698 289.57 218.64 290.46 218.563C290.172 218.632 289.89 218.794 289.89 219.012C289.89 228.305 289.89 237.598 289.89 246.892C289.188 246.892 288.486 246.892 287.785 246.892ZM243.117 218.846C243.53 218.863 243.941 218.878 244.353 218.893C244.584 218.901 244.816 218.905 245.046 218.914C245.046 228.216 245.046 237.518 245.046 246.821C245.046 246.846 245.051 246.869 245.055 246.892C244.402 246.892 243.749 246.892 243.096 246.892C243.096 237.544 243.096 228.195 243.096 218.847V218.846C243.104 218.846 243.111 218.846 243.117 218.846ZM283.552 246.892C283.075 246.892 282.599 246.892 282.122 246.892C281.743 246.892 281.364 246.892 280.984 246.892C280.553 246.892 280.121 246.892 279.69 246.892C279.715 246.843 279.732 246.79 279.732 246.732C279.732 241.068 279.732 235.404 279.732 229.74C279.732 229.621 279.686 229.532 279.614 229.469C279.669 229.159 279.707 228.849 279.719 228.542C279.972 228.541 280.224 228.54 280.476 228.538C280.566 228.538 280.763 228.51 280.942 228.451C281.123 228.392 281.286 228.302 281.303 228.177C281.529 226.52 281.802 224.813 281.982 223.105C282.128 221.714 282.208 220.322 282.143 218.956C282.78 218.937 283.419 218.925 284.057 218.903C284.941 218.873 285.825 218.839 286.71 218.799C286.65 218.862 286.612 218.932 286.612 219.011C286.612 228.304 286.612 237.597 286.612 246.891C285.988 246.891 285.364 246.891 284.741 246.891C284.344 246.892 283.948 246.892 283.552 246.892ZM254.092 228.549C254.107 229.228 253.949 229.941 253.795 230.616C253.748 230.637 253.704 230.66 253.665 230.689C253.071 230.691 252.478 230.693 251.885 230.695C251.744 230.521 251.437 230.496 251.18 230.58C250.981 229.927 250.877 229.247 250.865 228.565C251.941 228.559 253.016 228.554 254.092 228.549ZM255.735 228.005C255.572 228.006 255.408 228.007 255.244 228.007C255.165 227.894 254.803 227.913 254.504 228.011C253.242 228.018 251.98 228.024 250.717 228.031C250.638 228.017 250.534 228.018 250.421 228.032C250.246 228.033 250.071 228.034 249.896 228.035C249.702 228.036 249.509 228.037 249.315 228.038C249.315 228.028 249.315 228.018 249.315 228.008C249.315 227.899 249.276 227.816 249.215 227.755C249.199 227.544 249.073 227.243 249.019 226.93C248.825 225.826 248.681 224.713 248.582 223.597C251.068 223.597 253.555 223.597 256.042 223.597C256.125 223.597 256.231 223.569 256.338 223.526C256.175 225.033 255.941 226.535 255.735 228.005ZM249.315 246.733C249.315 240.679 249.315 234.626 249.315 228.573C249.439 228.572 249.564 228.571 249.689 228.571C249.669 229.435 249.791 230.304 250.072 231.123C250.115 231.247 250.316 231.235 250.414 231.235C250.534 231.235 250.654 231.234 250.774 231.234C250.774 236.429 250.774 241.625 250.774 246.821C250.774 246.846 250.78 246.869 250.783 246.892C250.28 246.892 249.776 246.892 249.273 246.892C249.298 246.843 249.315 246.79 249.315 246.733ZM251.963 246.733C251.963 241.565 251.963 236.398 251.963 231.23C252.469 231.229 252.975 231.227 253.48 231.226C253.48 236.424 253.48 241.622 253.48 246.821C253.48 246.846 253.486 246.869 253.489 246.892C252.966 246.892 252.444 246.892 251.921 246.892C251.947 246.843 251.963 246.79 251.963 246.733ZM254.67 246.733C254.67 241.509 254.67 236.286 254.67 231.063C254.766 231.01 254.842 230.945 254.86 230.863C255.022 230.122 255.232 229.32 255.264 228.543C255.517 228.542 255.769 228.54 256.021 228.539C256.039 228.539 256.065 228.537 256.091 228.534C256.091 234.63 256.091 240.725 256.091 246.821C256.091 246.846 256.097 246.869 256.1 246.892C255.609 246.892 255.118 246.892 254.628 246.892C254.653 246.843 254.67 246.79 254.67 246.733ZM257.158 226C257.483 223.731 257.778 221.41 257.693 219.154C258.09 219.157 258.489 219.16 258.886 219.162C258.828 219.23 258.791 219.31 258.791 219.4C258.791 228.564 258.791 237.728 258.791 246.892C258.273 246.892 257.756 246.892 257.238 246.892C257.264 246.843 257.28 246.79 257.28 246.732C257.28 239.913 257.28 233.094 257.28 226.275C257.28 226.153 257.233 226.064 257.158 226ZM259.95 219.166C260.583 219.169 261.215 219.172 261.848 219.173C261.795 219.239 261.761 219.315 261.761 219.4C261.761 228.564 261.761 237.728 261.761 246.892C261.168 246.892 260.574 246.892 259.98 246.892C259.98 237.698 259.98 228.505 259.98 219.312C259.98 219.256 259.967 219.209 259.95 219.166ZM262.925 219.177C262.988 219.178 263.051 219.178 263.115 219.178C263.682 219.179 264.249 219.176 264.816 219.176C264.765 219.241 264.731 219.316 264.731 219.401C264.731 228.565 264.731 237.728 264.731 246.892C264.138 246.892 263.544 246.892 262.95 246.892C262.95 237.699 262.95 228.506 262.95 219.312C262.95 219.261 262.94 219.218 262.925 219.177ZM265.894 219.176C266.525 219.175 267.157 219.176 267.788 219.174C267.736 219.239 267.701 219.315 267.701 219.401C267.701 228.565 267.701 237.728 267.701 246.892C267.108 246.892 266.514 246.892 265.921 246.892C265.921 237.699 265.921 228.506 265.921 219.312C265.92 219.26 265.909 219.216 265.894 219.176ZM268.861 219.169C269.498 219.166 270.136 219.16 270.772 219.155C270.711 219.224 270.672 219.307 270.672 219.4C270.672 228.564 270.672 237.728 270.672 246.892C270.078 246.892 269.484 246.892 268.891 246.892C268.891 237.698 268.891 228.505 268.891 219.312C268.89 219.258 268.879 219.212 268.861 219.169ZM273.386 228.039C273.448 228.039 273.497 228.03 273.537 228.015C273.528 228.023 273.52 228.031 273.511 228.038C273.469 228.039 273.427 228.039 273.386 228.039ZM278.546 228.549C278.562 229.252 278.392 229.993 278.233 230.689C277.378 230.691 276.523 230.694 275.668 230.697C275.445 230.009 275.332 229.288 275.32 228.565C276.395 228.559 277.47 228.554 278.546 228.549ZM280.19 228.005C280.027 228.006 279.863 228.007 279.699 228.007C279.62 227.894 279.258 227.913 278.959 228.011C277.697 228.018 276.434 228.024 275.172 228.031C275.092 228.017 274.988 228.018 274.875 228.032C274.745 228.033 274.615 228.033 274.485 228.034C274.321 227.799 273.87 227.81 273.591 227.981C273.792 227.831 273.554 227.392 273.473 226.929C273.289 225.879 273.149 224.822 273.05 223.762C275.623 223.762 278.196 223.762 280.769 223.762C280.607 225.189 280.384 226.612 280.19 228.005ZM271.839 219.186C271.834 219.173 271.828 219.16 271.822 219.147C271.847 219.146 271.872 219.146 271.896 219.146C271.876 219.159 271.856 219.172 271.839 219.186ZM271.86 224.013C271.994 225.51 272.216 227 272.53 228.465C272.557 228.589 272.787 228.577 272.872 228.577C273.034 228.576 273.197 228.575 273.359 228.574C273.359 234.656 273.359 240.738 273.359 246.82C273.359 246.846 273.364 246.868 273.367 246.891C272.865 246.891 272.363 246.891 271.86 246.891C271.86 239.265 271.86 231.639 271.86 224.013ZM274.548 246.733C274.548 241.538 274.548 236.344 274.548 231.149C274.611 231.24 274.779 231.235 274.869 231.235C275.285 231.234 275.702 231.233 276.118 231.231C276.085 231.286 276.065 231.347 276.065 231.414C276.065 236.55 276.065 241.685 276.065 246.821C276.065 246.846 276.07 246.869 276.074 246.892C275.551 246.892 275.029 246.892 274.506 246.892C274.532 246.843 274.548 246.79 274.548 246.733ZM277.242 231.228C277.657 231.226 278.072 231.225 278.487 231.224C278.502 231.224 278.523 231.222 278.542 231.221C278.542 236.421 278.542 241.621 278.542 246.821C278.542 246.846 278.547 246.869 278.551 246.892C278.104 246.892 277.658 246.892 277.212 246.892C277.238 246.843 277.254 246.79 277.254 246.732C277.254 241.597 277.254 236.461 277.254 231.326C277.255 231.291 277.25 231.258 277.242 231.228ZM280.834 223.115C278.221 223.115 275.608 223.115 272.995 223.115C272.894 221.793 272.86 220.465 272.897 219.139C275.6 219.111 278.302 219.059 281.004 218.988C280.978 219.026 280.962 219.067 280.965 219.11C281.038 220.428 280.967 221.771 280.834 223.115ZM256.51 219.142C256.58 220.417 256.515 221.713 256.39 223.011C253.778 223.011 251.166 223.011 248.554 223.011C248.547 223.011 248.538 223.013 248.531 223.014C248.434 221.7 248.404 220.382 248.443 219.066C248.444 219.045 248.433 219.028 248.418 219.013C251.115 219.079 253.813 219.119 256.51 219.142ZM247.799 219.003C247.529 219.07 247.275 219.202 247.269 219.379C247.178 222.414 247.437 225.492 248.075 228.465C248.082 228.495 248.101 228.516 248.126 228.531C248.126 234.628 248.126 240.724 248.126 246.821C248.126 246.846 248.131 246.869 248.134 246.892C247.487 246.892 246.84 246.892 246.193 246.892C246.219 246.843 246.235 246.791 246.235 246.733C246.235 237.472 246.235 228.21 246.235 218.949C246.757 218.965 247.278 218.981 247.8 218.995C247.81 218.995 247.821 218.995 247.831 218.996C247.821 218.998 247.81 219.001 247.799 219.003ZM238.342 218.035C236.86 217.865 236.733 217.515 236.593 215.953C236.281 212.486 236.571 208.93 236.678 205.458C236.729 203.785 236.775 202.112 236.77 200.438C236.765 198.722 236.344 196.97 237.186 195.385C238.535 192.847 242.247 192.857 244.753 192.714C247.724 192.545 250.702 192.483 253.677 192.428C260.931 192.294 268.19 192.302 275.444 192.436C278.326 192.489 281.209 192.564 284.088 192.721C286.416 192.847 288.621 192.983 290.713 194.149C293.124 195.492 292.784 197.762 292.722 200.075C292.663 202.282 292.766 204.497 292.834 206.703C292.908 209.091 292.99 211.481 292.977 213.872C292.972 214.919 293.199 216.875 292.587 217.877C292.493 217.848 292.003 218.02 291.737 218.05C290.919 218.144 290.096 218.198 289.275 218.25C286.819 218.405 284.357 218.475 281.897 218.54C275.343 218.71 268.785 218.744 262.23 218.723C260.678 218.717 259.127 218.71 257.575 218.697C257.484 218.67 257.345 218.67 257.197 218.692C253.503 218.66 249.809 218.591 246.118 218.469C245.938 218.31 245.588 218.319 245.336 218.443C244.871 218.427 244.404 218.416 243.94 218.398C242.074 218.322 240.199 218.248 238.342 218.035ZM240.061 218.695C240.714 218.737 241.368 218.771 242.021 218.8C241.961 218.862 241.923 218.933 241.923 219.012C241.923 228.305 241.923 237.598 241.923 246.892C241.303 246.892 240.682 246.892 240.062 246.892C240.062 237.494 240.062 228.096 240.062 218.698C240.062 218.697 240.061 218.696 240.061 218.695ZM230.639 258.332C230.639 254.733 230.639 251.135 230.639 247.536C233.464 247.536 236.29 247.536 239.115 247.536C239.174 247.543 239.242 247.543 239.312 247.536C240.258 247.536 241.204 247.536 242.15 247.536C242.21 247.543 242.276 247.543 242.347 247.536C247.886 247.536 253.425 247.536 258.964 247.536C259.145 247.645 259.432 247.634 259.656 247.536C260.415 247.536 261.175 247.536 261.934 247.536C262.115 247.645 262.402 247.634 262.626 247.536C263.385 247.536 264.145 247.536 264.904 247.536C265.085 247.645 265.372 247.634 265.596 247.536C266.355 247.536 267.115 247.536 267.874 247.536C268.055 247.645 268.342 247.634 268.566 247.536C269.325 247.536 270.085 247.536 270.845 247.536C271.026 247.645 271.312 247.634 271.536 247.536C275.599 247.536 279.662 247.536 283.725 247.536C283.906 247.645 284.192 247.634 284.416 247.536C285.223 247.536 286.031 247.536 286.838 247.536C286.897 247.543 286.964 247.543 287.035 247.536C288.062 247.536 289.089 247.536 290.116 247.536C290.176 247.543 290.243 247.543 290.313 247.536C292.372 247.536 294.43 247.536 296.488 247.536C296.488 251.134 296.488 254.733 296.488 258.332C274.539 258.332 252.589 258.332 230.639 258.332ZM162.231 164.497C162.465 165.211 162.646 165.94 162.881 166.654C163.015 167.066 161.848 167.396 161.707 166.968C161.473 166.254 161.292 165.525 161.058 164.811C160.923 164.399 162.091 164.069 162.231 164.497ZM172.574 165.074C172.828 165.479 171.686 165.853 171.483 165.529C171.085 164.894 171.01 164.253 171.01 163.518C171.009 163.068 172.183 162.848 172.183 163.204C172.184 163.859 172.216 164.503 172.574 165.074ZM161.769 162.995C160.836 162.665 159.907 162.806 159.001 163.15C158.802 163.226 158.418 163.336 158.232 163.167C158.046 162.998 158.45 162.789 158.559 162.748C159.889 162.243 161.34 161.983 162.715 162.471C163.155 162.627 162.088 163.109 161.769 162.995ZM204.564 189.287C204.545 189.456 204.677 189.587 205.038 189.532C205.046 189.531 205.054 189.529 205.062 189.528C207.003 190.407 209.263 190.747 211.433 190.491C217.317 189.797 222.205 185.387 224.969 180.385C226.645 177.353 227.584 173.726 226.904 170.283C226.265 167.043 223.873 164.864 220.965 163.657C220.969 163.647 220.967 163.636 220.956 163.631C216.525 161.25 211.331 163.888 207.869 166.792C203.541 170.422 199.811 176.173 199.87 181.972C199.906 185.408 201.871 187.896 204.564 189.287ZM208.061 189.852C207.384 189.708 206.764 189.511 206.195 189.27C210.546 187.962 212.353 183.383 213.727 179.304C215.268 174.731 216.666 166.468 222.698 165.95C222.782 165.943 222.859 165.922 222.93 165.892C231.611 173.498 219.854 192.368 208.061 189.852ZM222.143 165.276C217.41 166.08 215.433 170.76 214.008 174.925C212.434 179.525 211.093 187.853 205.182 188.765C204.461 188.342 203.848 187.833 203.333 187.259C207.936 185.854 210.289 182.286 211.864 177.835C213.637 172.824 214.781 166.557 220.118 164.156C220.873 164.479 221.547 164.855 222.143 165.276ZM202.301 175.714C204.492 170.315 209.947 163.679 216.203 163.188C217.105 163.117 217.998 163.27 218.839 163.576C218.796 163.624 218.798 163.667 218.876 163.691C219.134 163.773 219.383 163.862 219.625 163.954C215.358 165.872 213.443 169.773 212.003 174.095C210.304 179.195 208.838 185.235 203.082 186.966C200.722 184.05 200.721 179.606 202.301 175.714ZM250.391 212.482C258.83 213.553 260.097 201.614 252.455 199.482C252.435 199.476 252.413 199.474 252.391 199.472C252.368 199.467 252.348 199.462 252.322 199.458C248.556 198.99 245.247 201.083 244.378 204.821C243.432 208.888 246.556 211.994 250.391 212.482ZM251.815 200.223C257.628 201.907 258.429 211.92 251.26 211.744C243.266 211.548 243.956 199.33 251.815 200.223ZM250.477 208.608C251.958 208.772 253.419 208.116 253.798 206.594C254.167 205.112 253.142 203.708 251.744 203.308C251.714 203.3 251.681 203.296 251.647 203.294C251.634 203.292 251.624 203.289 251.611 203.287C250.064 203.103 248.619 203.899 248.16 205.415C247.678 207.006 248.918 208.434 250.477 208.608ZM251.081 204.02C252.033 204.31 252.572 205.115 252.671 206.082C252.773 207.078 252.148 207.942 251.119 207.891C248.694 207.772 248.689 203.837 251.081 204.02ZM277.846 212.482C286.285 213.553 287.551 201.614 279.91 199.482C279.89 199.476 279.868 199.474 279.846 199.472C279.822 199.467 279.803 199.462 279.776 199.458C276.01 198.99 272.702 201.083 271.833 204.821C270.886 208.888 274.01 211.994 277.846 212.482ZM279.269 200.223C285.083 201.907 285.883 211.92 278.714 211.744C270.72 211.548 271.41 199.33 279.269 200.223ZM277.931 208.608C279.413 208.772 280.874 208.116 281.253 206.594C281.622 205.112 280.596 203.708 279.198 203.308C279.169 203.3 279.136 203.296 279.102 203.294C279.089 203.292 279.079 203.289 279.065 203.287C277.518 203.103 276.073 203.899 275.615 205.415C275.133 207.006 276.372 208.434 277.931 208.608ZM278.535 204.02C279.488 204.31 280.027 205.115 280.125 206.082C280.227 207.078 279.603 207.942 278.573 207.891C276.148 207.772 276.144 203.837 278.535 204.02ZM232.991 255.983H293.972V249.826H232.991V255.983ZM233.801 250.634H293.162V255.176H233.801V250.634Z" fill="#2A2A2B"/>
</g>
<defs>
<linearGradient id="paint0_linear_4_900" x1="283.389" y1="75.1379" x2="294.342" y2="147.504" gradientUnits="userSpaceOnUse">
<stop stop-color="#FAC7FF"/>
<stop offset="1" stop-color="#FFD2BE"/>
</linearGradient>
<linearGradient id="paint1_linear_4_900" x1="373.764" y1="232.553" x2="88.7022" y2="264.621" gradientUnits="userSpaceOnUse">
<stop stop-color="#FAC7FF"/>
<stop offset="1" stop-color="#FFD2BE"/>
</linearGradient>
<clipPath id="clip0_4_900">
<rect width="375" height="667" fill="white"/>
</clipPath>
</defs>
</svg>
