<svg width="375" height="275" viewBox="0 50 375 325" fill="none" xmlns="http://www.w3.org/2000/svg">
<path d="M162.268 106.341C93.221 114.104 54.1003 153.566 81.3867 231.708C108.673 309.849 171.99 273.401 245.672 260.996C319.354 248.59 342.513 195.28 312.23 150.984C283.854 109.477 231.316 98.578 162.268 106.341Z" fill="url(#paint0_linear_4_879)"/>
<path d="M48.3299 326.999C45.1196 340.975 65.2576 351.11 78.712 351.274C92.1663 351.437 96.985 339.19 99.2788 323.896C101.572 308.602 88.721 299.248 74.2103 300.989C60.6133 302.619 51.5403 313.022 48.3299 326.999Z" fill="url(#paint1_linear_4_879)"/>
<path d="M167.262 158.989L160.775 154.451L153.646 151.898L147.66 150.94L143.372 150.448C149.285 150.333 155.192 151.584 160.499 154.261C163.007 155.526 165.262 157.129 167.262 158.989ZM186.599 164.749C190.469 173.082 192.283 182.393 191.684 191.567C191 202.04 187.191 212.385 182.298 221.568C179.052 227.659 175.193 233.316 170.999 238.731L160.585 251.192C154.994 257.524 149.23 263.717 143.805 270.123C143.786 270.101 143.769 270.08 143.751 270.06C143.507 269.772 143.265 269.484 143.02 269.198C140.61 266.373 138.144 263.588 135.664 260.813C135.642 260.772 135.609 260.735 135.567 260.705C130.16 254.658 124.687 248.654 119.57 242.38L109.576 228.815C108.341 226.911 107.154 224.971 106.029 222.982C100.837 213.796 97.0536 203.495 95.9006 192.959C94.8843 183.672 96.692 174.151 100.369 165.617C107.738 148.517 123.937 134.978 143.114 135.729C143.161 135.731 143.208 135.731 143.255 135.733C143.314 135.743 143.379 135.748 143.459 135.744C143.481 135.743 143.503 135.743 143.525 135.742C143.532 135.742 143.538 135.742 143.545 135.742C143.596 135.745 143.647 135.744 143.698 135.747C143.75 135.75 143.804 135.743 143.859 135.731C150.559 135.437 156.873 136.874 162.583 139.588C165.441 141.106 168.244 142.839 170.834 144.684C177.534 149.877 182.965 156.922 186.599 164.749ZM174.307 165.9C168.19 155.075 156.163 149.668 144.141 149.741C143.569 149.745 142.998 149.756 142.427 149.784C141.966 149.807 141.506 149.84 141.046 149.879L141.027 149.84C140.333 149.875 139.564 149.925 138.762 149.994C128.069 150.28 118.706 155.76 113.303 165.162C107.811 174.72 106.889 186.765 109.905 197.273C113.077 208.325 121.174 217.158 132.244 220.454C136.022 221.579 140.01 222.029 143.998 221.965C144.416 221.959 144.834 221.948 145.251 221.931C148.593 221.788 151.918 221.296 155.103 220.538C156.703 220.157 158.268 219.663 159.788 219.069C161.25 218.636 162.463 218.146 163.199 217.593C163.311 217.509 163.429 217.418 163.55 217.323C167.489 215.185 170.958 212.246 173.613 208.51C182.034 196.658 181.241 178.171 174.307 165.9ZM167.184 214.076C169.3 212.356 171.097 210.362 172.588 208.167C170.914 210.248 168.971 212.332 167.184 214.076ZM176.743 175.046L178.032 181.265C177.746 179.145 177.311 177.061 176.743 175.046ZM132.782 219.715C129.374 218.38 125.695 216.481 122.662 214.533C125.699 216.87 129.135 218.607 132.782 219.715ZM96.8982 204.393C96.1328 201.703 95.5195 198.97 95.0938 196.213C95.2897 198.714 95.9708 201.537 96.8982 204.393ZM272.55 153.345C271.745 162.072 267.978 169.595 263.048 176.503L250.023 191.799L245.075 197.36C245.057 197.338 245.04 197.318 245.022 197.298C244.986 197.255 244.949 197.212 244.913 197.17C239.538 190.875 233.656 184.766 228.71 178.122L228.573 177.939C223.371 170.914 219.231 163.283 217.861 154.193C215.472 138.336 227.552 119.889 244.463 120.302C244.576 120.304 244.689 120.308 244.802 120.312C244.836 120.316 244.876 120.317 244.916 120.316C244.918 120.316 244.919 120.316 244.921 120.316C244.959 120.318 244.996 120.318 245.033 120.32C245.075 120.322 245.116 120.317 245.16 120.31C262.219 119.615 274.01 137.522 272.55 153.345ZM265.211 142.612C263.193 134.165 256.399 128.162 247.612 128.24C246.83 128.154 246.045 128.11 245.261 128.102C244.649 128.096 244.039 128.118 243.429 128.159C242.999 128.188 242.572 128.229 242.146 128.282C241.011 128.378 239.761 128.542 238.756 128.825C238.037 129.026 236.994 129.442 235.822 130.035C233.517 131.076 231.4 132.534 229.622 134.429C224.313 140.086 223.1 149.184 224.93 156.517C227.068 165.083 235.071 169.754 243.39 170.214C243.945 170.261 244.473 170.3 244.901 170.329C244.901 170.329 245.052 170.299 245.316 170.245C250.245 170.132 255.135 168.539 258.837 165.397C261.149 163.435 262.865 160.953 264.03 158.21C264.031 158.21 264.031 158.208 264.032 158.207C266.094 153.35 266.419 147.674 265.211 142.612Z" fill="#2A2A2B"/>
<path fill-rule="evenodd" clip-rule="evenodd" d="M174.308 165.9C181.241 178.171 182.035 196.658 173.613 208.509C170.958 212.245 167.488 215.184 163.551 217.323C162.338 217.982 161.081 218.564 159.789 219.069C158.269 219.664 156.704 220.158 155.103 220.538C151.919 221.296 148.593 221.789 145.251 221.931C144.834 221.949 144.417 221.959 143.999 221.966C140.011 222.029 136.022 221.579 132.244 220.454C121.175 217.158 113.077 208.325 109.905 197.274C106.889 186.765 107.812 174.721 113.304 165.162C118.706 155.76 128.07 150.28 138.763 149.994C139.171 149.983 139.581 149.978 139.994 149.982C140.345 149.943 140.695 149.909 141.048 149.879C141.507 149.84 141.967 149.808 142.428 149.785C142.998 149.757 143.57 149.745 144.141 149.742C156.164 149.668 168.191 155.075 174.308 165.9ZM132.782 219.715C134.593 220.264 136.454 220.662 138.344 220.9C147.232 222.02 157.403 220.685 165.005 215.682C165.768 215.18 166.49 214.641 167.183 214.077C169.3 212.357 171.097 210.363 172.588 208.168C177.75 200.574 179.296 190.588 178.032 181.266C177.746 179.146 177.311 177.062 176.743 175.047C176.504 174.201 176.246 173.366 175.961 172.548C174.15 167.351 171.21 162.661 167.261 158.99C165.261 157.131 163.006 155.528 160.498 154.263C155.191 151.585 149.284 150.334 143.371 150.449C142.17 150.472 140.968 150.548 139.771 150.684C139.717 150.69 139.672 150.69 139.629 150.69C139.627 150.69 139.623 150.69 139.62 150.69H139.608C131.065 150.583 122.954 153.966 117.515 160.682C112.529 166.837 109.912 174.708 109.494 182.584C108.894 193.896 112.616 205.968 121.389 213.505C121.804 213.861 122.23 214.201 122.662 214.533C125.699 216.871 129.135 218.607 132.782 219.715ZM175.594 189.207C175.252 196.176 173.174 203.279 168.362 208.494C167.115 209.845 165.739 211.022 164.273 212.055C164.272 212.063 164.272 212.071 164.272 212.078C164.272 212.082 164.272 212.085 164.272 212.088C164.262 212.322 163.914 212.496 163.595 212.527C158.54 215.864 152.436 217.481 146.361 217.847C134.047 218.588 122.264 213.837 116.281 202.543C111.139 192.838 110.711 180.508 115.153 170.454C119.705 160.151 129.155 153.828 140.425 153.929C148.892 152.984 157.991 154.999 164.626 160.552C172.925 167.497 176.111 178.649 175.594 189.207ZM150.273 216.726C154.895 216.003 159.323 214.426 163.075 211.895C163.187 207.042 161.519 201.015 156.898 198.617C154.686 197.47 152.256 197.245 149.819 197.021C148.056 196.858 146.29 196.695 144.601 196.181C143.401 200.558 135.476 201.363 134.061 196.891C132.78 198.768 130.647 199.772 128.538 200.765C125.536 202.178 122.581 203.57 122.196 207.426C122.165 207.736 121.807 207.92 121.488 207.93C123.492 210.181 125.843 212.113 128.51 213.57C135.133 217.188 142.899 217.88 150.273 216.726ZM137.74 180.928C136.703 180.397 135.773 180.983 135.275 181.966C134.717 183.064 134.511 184.575 135.211 185.668C135.594 186.266 136.131 186.709 136.742 186.973C137.018 186.926 137.286 186.974 137.317 187.162C137.988 187.318 138.713 187.269 139.399 186.98C139.665 186.869 140.806 186.801 140.081 187.105C139.227 187.464 138.197 187.735 137.202 187.726C136.855 189.03 136.091 190.058 134.901 190.695C134.892 190.703 134.883 190.711 134.874 190.718C134.868 190.723 134.863 190.728 134.857 190.733C134.878 191.593 134.929 192.452 134.98 193.311C135.033 194.198 135.086 195.086 135.106 195.975C135.108 195.98 135.113 195.983 135.113 195.989C135.881 200.419 143.076 200.482 143.538 195.8C143.491 195.781 143.444 195.763 143.397 195.744C143.304 195.707 143.211 195.67 143.119 195.628C142.847 195.503 143.004 195.298 143.272 195.152C143.272 195.147 143.271 195.142 143.27 195.138C143.268 195.131 143.267 195.125 143.267 195.117C143.252 192.673 146.293 191.416 148.764 190.395C149.651 190.028 150.465 189.692 151.038 189.342C155.975 186.325 155.304 179.094 154.672 173.891C152.191 177.23 146.297 177.168 143.41 174.181C143.418 174.359 143.427 174.537 143.436 174.715C143.609 178.255 143.783 181.799 139.983 183.431C139.715 183.661 138.861 183.744 138.866 183.616C138.904 182.637 138.713 181.425 137.74 180.928ZM135.546 180.662C135.546 180.662 135.404 180.761 135.221 180.981C135.524 180.77 135.852 180.601 136.197 180.476C135.818 180.561 135.546 180.662 135.546 180.662ZM159.415 199.133C162.82 202.192 164.248 206.555 164.286 211.025C167.017 208.94 169.329 206.301 170.991 203.036C174.481 196.173 175.116 188.008 173.881 180.479C172.47 171.87 168.324 163.718 160.739 159.04C154.622 155.268 147.331 153.85 140.225 154.654C140.172 154.66 140.13 154.659 140.088 154.659H140.086C140.084 154.659 140.082 154.659 140.08 154.659C140.078 154.659 140.075 154.659 140.073 154.659H140.05C130.387 154.549 121.954 159.599 117.415 168.16C112.145 178.1 111.909 190.912 116.87 201.028C117.984 203.3 119.367 205.443 120.996 207.37C121.346 204.342 123.202 202.338 125.868 200.993C126.444 200.703 127.054 200.432 127.67 200.159C130.136 199.067 132.707 197.927 133.663 195.236C133.7 195.134 133.772 195.052 133.864 194.991C133.839 194.492 133.809 193.994 133.779 193.496C133.737 192.807 133.695 192.118 133.668 191.429C132.376 190.882 131.359 188.611 130.67 187.073C130.521 186.741 130.388 186.444 130.271 186.205C129.104 183.833 127.907 181.379 127.173 178.829C125.887 174.364 129.395 168.505 134.203 170.143H134.239C134.239 170.143 134.33 169.98 134.492 169.706C134.954 164.251 140.081 164.689 144.842 165.095C147.001 165.28 149.085 165.458 150.624 165.076C150.661 165.067 150.695 165.063 150.729 165.059C151.934 163.806 153.28 162.587 154.886 162.181C157.173 161.604 159.391 162.691 160.644 164.705C163.178 168.779 160.107 172.841 155.782 172.856C155.796 172.968 155.81 173.082 155.825 173.197C156.394 177.76 157.246 184.588 153.873 188.101C152.507 189.524 150.691 190.351 148.923 191.156C148.877 191.177 148.831 191.198 148.784 191.219C148.587 191.31 148.372 191.402 148.148 191.498C146.546 192.187 144.455 193.087 144.466 194.974C144.466 195.039 144.434 195.099 144.385 195.154C146.351 195.977 148.518 196.169 150.679 196.361C153.821 196.64 156.948 196.917 159.415 199.133ZM264.029 158.212C262.865 160.954 261.148 163.436 258.837 165.398C255.134 168.54 250.245 170.133 245.316 170.247C244.673 170.261 244.031 170.251 243.389 170.215C235.07 169.755 227.067 165.084 224.929 156.518C223.1 149.185 224.313 140.087 229.621 134.43C231.4 132.536 233.516 131.077 235.821 130.037C237.817 129.135 239.957 128.554 242.145 128.283C242.571 128.23 242.999 128.189 243.428 128.16C244.038 128.119 244.649 128.096 245.261 128.103C246.045 128.111 246.83 128.155 247.612 128.241C256.398 128.162 263.192 134.166 265.21 142.613C266.419 147.675 266.094 153.35 264.031 158.208C264.031 158.21 264.03 158.211 264.029 158.212ZM226.889 140.888C224.292 148.364 224.57 158.507 230.686 164.282C236.593 169.86 247.143 171.178 254.384 167.503C259.751 164.78 263.191 159.404 264.277 153.554C266.414 142.04 260.113 128.832 247.154 128.949C247.081 128.949 247.025 128.942 246.977 128.932C238.355 128.055 229.839 132.389 226.889 140.888ZM247.349 130.518C261.401 130.409 267.289 147.097 261.408 158.377C258.803 163.376 254.083 166.784 248.502 167.603C241.034 168.7 232.49 166.514 228.607 159.543C225.072 153.196 225.714 143.501 229.976 137.669C233.979 132.194 240.729 129.798 247.349 130.518ZM257.536 162.065C257.567 162.079 257.601 162.091 257.636 162.099C255.935 163.886 253.845 165.231 251.514 166.079C249.457 166.911 247.213 167.368 244.863 167.368C242.13 167.368 239.54 166.749 237.22 165.642C236.533 165.362 235.864 165.039 235.22 164.672C235.27 164.657 235.319 164.638 235.365 164.617C235.087 164.441 234.814 164.257 234.546 164.066C234.544 164.131 234.543 164.196 234.542 164.263C233.867 163.832 233.221 163.352 232.616 162.811C231.277 161.615 230.251 160.166 229.486 158.579C227.836 155.822 226.886 152.586 226.886 149.124C226.886 139.048 234.935 130.88 244.863 130.88C246.29 130.88 247.677 131.048 249.008 131.367C254.456 132.039 258.308 135.487 260.44 140.01C261.967 142.692 262.841 145.804 262.841 149.124C262.841 153.05 261.619 156.686 259.54 159.662C259.214 160.178 258.863 160.669 258.487 161.135C258.482 161.106 258.476 161.077 258.471 161.048C258.172 161.399 257.86 161.738 257.536 162.065ZM245.061 198.71C245.058 198.712 245.056 198.714 245.051 198.717C244.041 199.295 242.963 199.832 241.873 200.376C239.143 201.737 236.334 203.137 234.316 205.316C230.762 209.155 235.18 211.952 238.516 213.68C239.138 214.002 239.787 214.318 240.446 214.639C243.19 215.975 246.11 217.396 248.019 219.713C250.5 222.725 250.112 226.433 248.28 229.719C246.864 232.26 244.153 233.899 241.724 235.332C240.748 235.908 239.746 236.458 238.742 237.008C236.386 238.3 234.016 239.599 231.934 241.273C229.494 243.236 227.468 246.322 229.812 249.266C231.672 251.604 234.799 252.272 237.619 252.874C237.888 252.932 238.154 252.988 238.417 253.046C238.618 253.09 238.823 253.135 239.029 253.179C241.836 253.787 245.076 254.488 247.096 256.629C249.476 259.151 250.541 263.676 247.256 265.868C247.016 266.028 245.806 266.129 246.325 265.783C248.897 264.068 248.421 260.469 246.865 258.165C245.745 256.505 244.047 255.454 242.18 254.803C240.715 254.292 239.181 253.969 237.648 253.646C235.634 253.222 233.619 252.798 231.758 251.947C229.512 250.92 227.244 248.866 227.579 246.114C227.915 243.345 230.511 241.407 232.672 239.99C233.941 239.159 235.445 238.358 237.013 237.522C242.445 234.629 248.66 231.319 248.632 224.861C248.615 220.935 245.58 218.51 242.428 216.739C241.547 216.243 240.534 215.778 239.485 215.297C236.824 214.075 233.938 212.751 232.429 210.567C229.205 205.899 237.422 201.907 242.11 199.629C243.027 199.184 243.808 198.804 244.344 198.498C244.377 198.478 244.422 198.461 244.471 198.447C244.453 198.426 244.435 198.404 244.417 198.383L244.403 198.366C244.177 198.489 243.881 198.594 243.743 198.584C239.14 198.273 234.289 199.329 229.877 200.534C226.14 201.555 222.379 202.823 218.999 204.75C216.571 206.135 213.522 208.14 212.843 211.08C212.176 213.972 214.025 216.664 216.176 218.414C216.464 218.648 216.904 218.923 217.397 219.232C218.747 220.076 220.494 221.169 220.596 222.346C220.76 224.231 217.582 225.523 215.89 226.211C215.676 226.297 215.487 226.374 215.331 226.442C212.406 227.704 209.694 228.726 206.541 229.232C204.003 229.639 201.404 229.899 198.795 230.16C193.517 230.689 188.198 231.222 183.257 232.98C179.931 234.163 176.946 236.412 176.086 240.081C175.4 243.007 177.961 244.109 180.242 245.016C180.401 245.079 180.563 245.142 180.728 245.207C182.686 245.973 185.045 246.895 185.949 248.9C186.772 250.723 186.766 252.673 185.292 254.164C181.681 257.814 175.285 258.63 170.365 259.258C170.183 259.281 170.002 259.304 169.824 259.327C166.778 259.719 163.718 259.913 160.66 260.108C158.198 260.264 155.737 260.421 153.283 260.68C150.247 264.072 147.231 267.475 144.307 270.948C144.276 271.007 144.224 271.064 144.155 271.113C144.099 271.153 144.034 271.189 143.964 271.218C143.937 271.228 143.907 271.236 143.877 271.244C143.612 271.332 143.305 271.339 143.169 271.176C140.449 267.944 137.634 264.759 134.79 261.583C123.668 262.475 112.547 263.367 101.426 264.259L101.416 264.26C100.603 264.325 100.813 263.378 101.508 263.322C107.344 262.854 113.18 262.386 119.017 261.918C124.015 261.517 129.014 261.116 134.013 260.715C133.321 259.943 132.628 259.172 131.934 258.4C119.535 244.604 107.032 230.693 99.9906 213.331C98.8132 210.427 97.7614 207.438 96.896 204.393C96.1314 201.704 95.5173 198.97 95.0917 196.213C94.4953 192.351 94.2684 188.442 94.5461 184.539C95.1784 175.669 97.8866 166.911 102.441 159.271C111.198 144.578 126.411 134.136 143.881 134.973C164.881 133.981 182.459 149.326 189.459 168.443C192.505 176.761 193.815 185.853 192.55 194.668C191.078 204.93 187.368 214.837 182.227 223.805C174.923 236.548 165.163 247.431 155.41 258.306C154.874 258.904 154.337 259.502 153.801 260.101C155.827 259.897 157.862 259.78 159.896 259.664C161.671 259.562 163.447 259.461 165.216 259.301C168.796 258.977 172.403 258.575 175.912 257.776L176.069 257.74C178.739 257.133 182.031 256.384 184.021 254.373C185.66 252.716 185.779 250.101 184.153 248.324C182.928 246.987 181.287 246.342 179.646 245.697C178.87 245.392 178.095 245.087 177.364 244.71C175.439 243.717 174.19 242.189 174.995 239.934C175.993 237.144 177.893 234.791 180.578 233.525C185.93 231.001 192.08 230.37 198.01 229.761C199.353 229.624 200.685 229.487 201.994 229.33C202.52 229.266 203.059 229.209 203.604 229.15C206.306 228.86 209.176 228.551 211.61 227.467C211.773 227.394 212.085 227.279 212.492 227.128C214.856 226.251 220.456 224.173 219.24 222.232C218.558 221.145 217.403 220.375 216.251 219.608C215.369 219.02 214.489 218.434 213.825 217.708C212.216 215.947 210.91 213.424 211.73 210.998C213.59 205.499 221.13 202.779 226.072 201.161C231.734 199.307 238.065 197.68 244.089 197.998C242.155 195.727 240.155 193.506 238.154 191.285C233.814 186.465 229.47 181.643 225.794 176.292C220.679 168.849 216.376 159.881 216.383 150.651C216.392 134.839 228.64 118.82 245.336 119.549C261.923 118.893 274.462 135.189 273.891 151.066C273.305 167.356 262.291 179.687 251.864 191.36C249.764 193.71 247.689 196.034 245.727 198.358C245.696 198.416 245.646 198.472 245.578 198.52C245.522 198.561 245.455 198.597 245.383 198.627C245.282 198.668 245.17 198.698 245.061 198.71ZM143.775 270.088C143.785 270.099 143.794 270.111 143.804 270.122C147.28 266.018 150.895 262.002 154.514 257.98C156.544 255.724 158.576 253.467 160.585 251.192C164.175 247.127 167.691 243.004 171 238.73C175.193 233.315 179.053 227.658 182.298 221.567C187.192 212.384 191 202.039 191.684 191.566C192.283 182.392 190.469 173.081 186.6 164.748C182.965 156.922 177.535 149.877 170.833 144.683C168.261 142.69 165.501 140.975 162.583 139.588C156.872 136.873 150.559 135.436 143.859 135.731C143.804 135.742 143.749 135.75 143.697 135.747C143.672 135.745 143.646 135.745 143.621 135.744C143.595 135.744 143.57 135.743 143.544 135.742C143.537 135.741 143.532 135.741 143.525 135.741C143.514 135.742 143.503 135.742 143.492 135.742C143.481 135.742 143.47 135.743 143.459 135.743C143.379 135.748 143.313 135.742 143.254 135.733C143.227 135.732 143.201 135.731 143.174 135.73C143.154 135.73 143.134 135.729 143.114 135.729C123.936 134.977 107.737 148.516 100.369 165.616C96.6914 174.15 94.8838 183.671 95.9 192.959C97.053 203.495 100.836 213.796 106.029 222.982C107.153 224.971 108.34 226.911 109.576 228.815C112.64 233.538 116.018 238.025 119.569 242.38C123.924 247.719 128.536 252.862 133.146 258.003C133.953 258.903 134.761 259.803 135.566 260.704C135.609 260.735 135.641 260.771 135.663 260.813C138.144 263.588 140.61 266.372 143.019 269.197C143.177 269.382 143.335 269.568 143.492 269.754C143.578 269.856 143.664 269.957 143.75 270.059C143.759 270.069 143.767 270.078 143.775 270.088ZM228.574 177.939L228.711 178.121C232.058 182.618 235.835 186.87 239.592 191.1C241.386 193.12 243.176 195.135 244.913 197.17C244.949 197.213 244.986 197.256 245.023 197.299C245.027 197.304 245.032 197.31 245.037 197.316C245.05 197.33 245.062 197.345 245.075 197.36L245.223 197.534C247.066 195.372 249.001 193.213 250.956 191.032C255.138 186.366 259.408 181.602 263.047 176.503C267.977 169.595 271.745 162.072 272.549 153.345C274.01 137.523 262.218 119.615 245.161 120.31C245.117 120.317 245.075 120.321 245.034 120.319C245.013 120.318 244.992 120.318 244.971 120.317C244.955 120.317 244.938 120.316 244.922 120.316H244.917C244.877 120.316 244.837 120.315 244.802 120.312C244.69 120.307 244.577 120.304 244.464 120.301C227.553 119.889 215.472 138.335 217.862 154.193C219.232 163.283 223.372 170.914 228.574 177.939Z" fill="#2A2A2B"/>
<path d="M272.747 150.666C272.747 150.666 258.958 152.248 250.142 150.666C249.464 152.474 249.916 165.585 261.671 164.907C273.425 164.229 272.747 150.666 272.747 150.666Z" stroke="#2A2A2B" stroke-width="0.904202"/>
<path d="M272.295 154.961C272.596 154.509 274.013 153.113 275.46 152.932C277.268 152.706 277.494 159.035 274.781 160.166C272.611 161.07 271.089 159.864 270.939 158.809" stroke="#2A2A2B" stroke-width="0.904202"/>
<path d="M258.779 140.267C259.005 141.624 256.067 143.884 256.519 145.918C256.88 147.546 257.724 148.706 258.101 149.083" stroke="#2A2A2B" stroke-width="0.904202"/>
<path d="M262.396 144.11C261.944 147.049 263.875 148.706 264.252 149.083" stroke="#2A2A2B" stroke-width="0.904202"/>
<defs>
<linearGradient id="paint0_linear_4_879" x1="395.625" y1="117.927" x2="125.017" y2="289.045" gradientUnits="userSpaceOnUse">
<stop stop-color="#FAC7FF"/>
<stop offset="1" stop-color="#FFD2BE"/>
</linearGradient>
<linearGradient id="paint1_linear_4_879" x1="71.5832" y1="281.929" x2="77.9053" y2="351.447" gradientUnits="userSpaceOnUse">
<stop stop-color="#FAC7FF"/>
<stop offset="1" stop-color="#FFD2BE"/>
</linearGradient>
</defs>
</svg>
