<svg width="375" height="275" viewBox="0 50 375 325" fill="none" xmlns="http://www.w3.org/2000/svg">
<g clip-path="url(#clip0_4_915)">
<g clip-path="url(#clip1_4_915)">
<path d="M147.019 232.706C146.775 232.759 146.49 232.831 146.19 232.928C146.387 232.704 146.678 232.646 147.019 232.706ZM132.84 251.696C132.825 251.706 132.811 251.715 132.796 251.725C132.797 251.726 132.799 251.726 132.8 251.728C132.813 251.717 132.827 251.707 132.84 251.696ZM192.838 207.289C192.357 203.971 191.459 200.63 188.777 198.514C181.422 205.454 171.573 197.095 166.535 190.535C165.389 190.641 164.22 190.755 163.039 190.888C161.639 191.054 159.943 191.283 158.149 191.58C155.311 192.088 152.526 192.811 149.989 193.931C148.238 194.704 146.689 195.783 145.296 197.065C145.296 197.072 145.296 197.079 145.296 197.087C145.296 197.296 145.065 197.462 144.795 197.541C143.718 198.599 142.737 199.779 141.832 201.034C139.168 205.694 135.61 212.618 132.61 218.596C132.615 218.618 132.6 218.645 132.57 218.676C131.911 219.99 131.28 221.255 130.692 222.441C128.113 228.215 125.75 234.071 123.458 240.004C122.088 243.549 119.648 249.337 121.91 253.016C123.853 256.176 128.42 259.874 132.414 258.736C132.428 258.732 132.44 258.731 132.454 258.728C133.599 257.99 134.796 257.352 136.034 256.804C134.58 255.252 133.379 253.343 131.469 252.318C131.241 252.195 131.234 252.032 131.341 251.881C131.254 251.765 131.286 251.609 131.552 251.435C134.436 249.539 137.84 248.625 141.347 248.336C140.264 246.805 138.955 245.423 138.479 243.557C138.384 243.182 139.724 242.83 139.818 243.199C139.824 243.22 139.833 243.239 139.838 243.26C144.411 242.763 149.009 242.408 153.501 242.898C152.868 241.925 152.34 240.923 151.865 239.869C149.87 240.305 147.175 239.117 145.65 237.358C139.523 240.142 133.621 243.406 127.211 245.528C126.421 245.79 126.276 245.182 127.05 244.926C133.37 242.833 139.194 239.569 145.24 236.826C144.585 235.872 144.282 234.797 144.593 233.74C144.986 232.406 146.1 231.995 147.271 232.072C147.404 230.734 147.97 229.268 149.315 229.115C149.281 229.052 149.263 228.976 149.267 228.886C149.516 222.318 150.422 215.8 150.254 209.217C150.237 208.574 151.597 208.396 151.615 209.131C151.784 215.714 150.878 222.232 150.628 228.8C150.621 228.985 150.503 229.129 150.34 229.226C150.559 229.291 150.773 229.375 150.981 229.478C151.876 228.348 153.165 228.2 154.359 228.677C156.555 227.531 158.836 228.731 159.982 230.929C161.202 233.267 160.869 235.772 157.997 236.314C157.845 236.343 157.736 236.346 157.656 236.332C157.569 236.355 157.505 236.371 157.465 236.381C157.406 236.477 157.34 236.57 157.269 236.662L157.216 236.759C165.599 238.605 172.797 247.202 175.098 255.514C175.43 256.251 175.683 257.026 175.84 257.842C183.058 252.774 192.103 250.944 201.059 250.293C196.994 240.378 195.36 229.302 193.944 218.746C193.433 214.941 193.389 211.083 192.838 207.289ZM219.052 239.533C218.191 235.693 217.455 231.798 217.247 227.86C217.079 224.665 217.136 221.461 216.983 218.265C216.934 218.264 216.887 218.268 216.838 218.265C216.449 218.246 216.652 218.052 216.966 217.887C216.941 217.415 216.911 216.942 216.874 216.471C216.153 207.187 213.777 193.297 202.88 191.18C202.904 193.076 202.319 194.816 201.486 196.572C200.263 199.147 199.433 201.915 200.339 204.748C201.227 207.524 202.955 209.755 204.57 212.139C210.323 220.63 213.668 231.079 215.39 241.119C215.461 241.528 214.113 241.839 214.051 241.477C212.11 230.166 207.987 219.71 201.612 210.199C200.959 209.225 200.418 208.275 199.985 207.333C198.142 208.362 196.44 208.407 194.428 207.971C194.807 211.272 194.788 214.692 195.169 217.53C196.631 228.43 198.237 239.869 202.463 250.099C202.478 250.133 202.485 250.166 202.49 250.199C205.901 249.996 209.283 249.948 212.532 249.942C212.85 249.589 213.817 249.492 213.777 250.009C213.704 250.94 212.897 251.909 212.376 252.632C211.84 253.376 211.283 254.127 210.661 254.807C211.866 254.813 213.071 254.819 214.275 254.819C214.478 254.819 214.796 254.901 214.624 255.158C214.263 255.695 213.333 257.439 212.51 258.541C216.736 258.864 219.274 254.596 219.952 250.825C220.643 246.973 219.894 243.29 219.052 239.533Z" fill="#2A2A2B"/>
<path d="M288.253 260.467C283.767 260.467 279.281 260.467 274.794 260.467C275.988 259.538 276.584 258.183 276.34 256.603C276.325 256.508 276.258 256.446 276.162 256.411C276.169 256.28 276.059 256.183 275.759 256.185C274.951 256.19 274.146 256.207 273.342 256.226C274.265 255.3 274.971 254.296 275.494 253.233C276.213 254.229 277.497 254.572 278.964 254.236C281.134 253.739 283.068 252.251 283.844 250.13C284.754 247.642 283.711 244.142 281.354 242.847C279.691 241.932 277.796 242.529 276.469 243.709C276.33 242.822 276.151 241.931 275.94 241.041C275.931 240.999 275.915 240.962 275.896 240.928C275.954 240.787 275.872 240.675 275.528 240.675C266.474 240.689 257.421 241.104 248.367 240.835C248.524 240.306 247.183 240.478 247.019 240.981C245.432 245.834 246.466 253.151 250.809 256.355C249.774 256.468 248.742 256.622 247.714 256.835C247.67 256.845 247.642 256.861 247.605 256.873C247.239 256.933 246.837 257.14 246.846 257.423C246.888 258.802 247.792 259.86 248.954 260.467C238.835 260.467 228.715 260.467 218.595 260.467C218.763 260.307 218.785 260.134 218.454 260.051C216.89 259.654 215.272 259.43 213.643 259.286C218.362 258.655 220.946 253.87 221.539 249.061C222.052 244.898 220.687 240.693 219.85 236.668C218.801 231.621 218.541 226.632 218.442 221.492C218.422 220.45 218.389 219.336 218.334 218.172C219.727 218.029 222.883 217.385 226.213 214.514C230.681 210.662 232.684 202.804 230.835 197.72C230.687 197.314 230.505 196.885 230.3 196.442C229.075 192.511 226.095 188.935 223.607 185.629C221.469 182.789 219.495 179.727 219.067 176.125C218.459 171.012 221.999 166.229 222.191 161.131C222.371 156.325 220.297 150.961 216.75 147.629C214.715 145.718 212.001 145.009 209.27 144.752C207.82 144.3 206.954 144.103 206.954 144.103L206.822 144.011C206.81 143.985 206.8 143.959 206.782 143.933C203.603 139.214 196.603 138.805 191.637 140.416C188.267 141.509 185.272 144.124 182.585 146.331C178.982 149.291 175.432 152.249 171.724 155.076C166.533 159.034 163.391 163.797 161.953 170.174C160.429 176.936 160.342 184.156 165.804 188.987C165.65 189.092 165.569 189.217 165.652 189.336C165.675 189.367 165.698 189.4 165.721 189.432C165.604 189.462 165.487 189.493 165.368 189.518C165.192 189.555 165.074 189.628 164.99 189.715C160.209 190.196 155.168 190.907 150.681 192.618C150.695 179.823 151.126 167.032 151.141 154.237C151.484 154.084 151.751 153.902 151.37 153.902C129.799 153.908 108.232 154.357 86.6604 154.364C86.3863 154.364 85.1365 154.901 85.7891 154.901C85.8769 154.901 85.9652 154.9 86.0535 154.9C86.01 154.969 85.9832 155.048 85.9832 155.137C85.9832 190.246 85.9832 225.357 85.9832 260.467C82.9959 260.467 80.0086 260.467 77.0209 260.467C76.267 260.467 75.9837 261.417 76.8942 261.417C79.9241 261.417 82.9534 261.417 85.9832 261.417C85.9832 261.427 85.9832 261.436 85.9832 261.446C85.9832 262.163 87.2627 262.019 87.338 261.417C101.331 261.417 115.325 261.417 129.318 261.417C129.476 261.483 129.784 261.476 130.043 261.417C166.782 261.417 203.52 261.417 240.26 261.417C256.215 261.417 272.171 261.417 288.127 261.417C288.88 261.416 289.164 260.467 288.253 260.467ZM137.315 256.273C135.857 254.733 134.636 252.842 132.801 251.728C132.799 251.726 132.797 251.725 132.796 251.724C132.811 251.715 132.826 251.706 132.84 251.696C138.981 247.953 147.542 248.853 154.179 250.583C160.273 252.172 167.099 253.924 172.516 257.404C169.376 256.506 166.129 255.945 162.931 255.349C158.552 254.533 154.21 253.98 149.75 254.037C145.501 254.091 141.236 254.761 137.315 256.273ZM156.484 230.361C156.095 229.829 155.61 229.378 155.082 229.043C157.814 227.519 161.3 235.064 158.202 235.65C158.021 235.684 157.847 235.775 157.716 235.879C158.407 234.147 157.632 231.929 156.484 230.361ZM202.462 250.098C198.236 239.869 196.63 228.43 195.168 217.53C194.787 214.692 194.806 211.271 194.428 207.971C196.439 208.406 198.141 208.362 199.984 207.333C200.418 208.275 200.958 209.225 201.611 210.198C207.986 219.71 212.109 230.166 214.051 241.477C214.112 241.838 215.46 241.527 215.39 241.118C213.667 231.079 210.322 220.63 204.569 212.138C202.954 209.755 201.226 207.524 200.338 204.748C199.432 201.914 200.262 199.147 201.485 196.571C202.318 194.816 202.903 193.076 202.879 191.18C213.776 193.297 216.152 207.187 216.873 216.47C216.91 216.942 216.94 217.415 216.965 217.887C216.651 218.052 216.448 218.246 216.837 218.265C216.886 218.268 216.933 218.264 216.982 218.265C217.135 221.461 217.078 224.664 217.246 227.86C217.454 231.798 218.191 235.692 219.051 239.532C219.893 243.29 220.643 246.973 219.95 250.825C219.272 254.596 216.735 258.865 212.508 258.541C213.331 257.439 214.261 255.695 214.622 255.159C214.794 254.901 214.476 254.819 214.273 254.819C213.069 254.819 211.864 254.813 210.659 254.807C211.281 254.127 211.838 253.376 212.375 252.632C212.895 251.91 213.703 250.94 213.775 250.009C213.816 249.493 212.848 249.59 212.53 249.942C209.281 249.948 205.899 249.996 202.488 250.199C202.485 250.166 202.477 250.132 202.462 250.098ZM189.796 197.696C187.712 195.4 188.67 192.296 189.525 189.601C193.396 189.935 197.139 188.268 200.405 185.553C200.483 186.826 200.933 188.125 201.226 189.313C201.891 192 201.303 194.33 200.157 196.776C198.503 200.303 198.424 203.327 199.587 206.387C197.81 207.519 196.257 207.347 194.277 206.816C193.742 203.213 192.607 199.858 189.796 197.696ZM205.168 175.039C205.203 175.055 205.25 175.064 205.301 175.067C205.255 175.127 205.251 175.181 205.313 175.219C207.146 176.345 206.69 178.41 205.681 179.969C204.26 182.166 201.535 183.661 199.097 182.161C194.519 179.344 201.427 173.252 205.168 175.039ZM206.381 169.444C207.075 170.714 207.712 172.054 208.171 173.4C207.77 173.942 207.447 174.547 207.063 175.101C206.916 174.967 206.754 174.838 206.564 174.721C206.505 174.685 206.424 174.669 206.332 174.668C206.39 174.584 206.378 174.502 206.247 174.44C203.621 173.186 200.441 174.479 198.385 176.248C198.291 176.328 198.204 176.413 198.115 176.497C197.274 174.852 195.629 173.867 193.814 173.76C195.192 172.023 196.086 169.39 193.853 168.019C193.794 167.982 193.712 167.967 193.621 167.966C193.679 167.882 193.667 167.8 193.536 167.738C191.163 166.605 188.341 167.554 186.301 169.051C185.549 168.021 184.648 167.121 183.739 166.229C184.271 166.053 184.875 165.906 185.538 165.828C188.157 165.52 194.782 166.444 198.172 163.671C199.668 162.447 200.653 161.403 201.34 160.446C202.295 159.347 202.941 158.032 203.119 156.488C203.25 156.062 203.344 155.758 203.409 155.547C203.296 160.481 203.973 165.04 206.381 169.444ZM192.457 168.337C192.492 168.353 192.539 168.361 192.59 168.365C192.544 168.425 192.54 168.479 192.602 168.517C194.435 169.643 193.979 171.708 192.97 173.267C192.803 173.525 192.618 173.772 192.418 174.007C192.229 174.115 192.099 174.229 192.16 174.29C190.65 175.875 188.42 176.71 186.387 175.459C181.808 172.642 188.717 166.55 192.457 168.337ZM174.137 186.627C176.919 182.674 178.306 174.413 176.058 170.824C176.004 170.661 175.944 170.501 175.874 170.34C174.893 168.093 172.161 167.04 173.474 164.184C174.468 162.019 176.982 161.269 179.151 161.824C179.889 162.013 180.479 162.38 180.937 162.858C181.851 164.577 181.224 167.523 181.224 167.523C181.224 167.523 181.574 167.238 182.197 166.898C182.297 167.052 182.567 167.085 182.836 167.036C183.68 167.869 184.503 168.722 185.176 169.705C185.218 169.766 185.295 169.797 185.392 169.806C183.427 171.69 182.77 174.502 185.437 176.144C187.946 177.688 191.183 176.362 193.122 174.522C193.179 174.468 193.236 174.407 193.292 174.35C194.913 174.553 196.32 175.712 196.948 177.229C196.993 177.338 197.158 177.367 197.358 177.349C196.02 179.157 195.855 181.435 198.148 182.846C198.954 183.342 199.835 183.539 200.724 183.521C200.692 183.553 200.665 183.587 200.651 183.624C200.577 183.822 200.525 184.022 200.484 184.224C198.75 185.876 196.86 187.286 194.624 188.237C191.111 189.731 187.518 188.693 184.509 186.637C184.094 186.355 182.876 186.943 183.457 187.339C185.08 188.447 186.711 189.12 188.327 189.434C187.503 192.059 186.475 195.074 188.005 197.471C187.857 197.644 187.837 197.85 188.083 198.015C181.583 204.879 172.166 195.813 167.709 189.946C169.099 189.993 171.99 189.677 174.137 186.627ZM142.871 248.247C141.897 246.813 140.676 245.525 140.049 243.907C147.519 243.117 154.738 242.894 161.74 246.067C166.169 248.074 171.632 251.218 173.767 255.914C173.869 256.278 173.958 256.641 174.039 257.003C171.145 255.094 167.863 253.816 164.599 252.683C160.736 251.342 156.742 250.079 152.741 249.222C149.646 248.559 146.237 248.14 142.871 248.247ZM154.931 242.684C154.212 241.598 153.629 240.479 153.106 239.293C153.293 239.146 153.463 238.97 153.615 238.767C154.753 239.044 156.138 238.967 156.345 237.645C162.921 238.918 168.755 244.773 171.947 251.219C169.187 248.585 165.484 246.656 162.323 245.223C159.793 244.076 157.194 243.399 154.555 243.029C154.808 242.922 154.993 242.778 154.931 242.684ZM149.867 230.274C151.146 230.783 152.17 232.085 152.969 233.149C153.803 234.258 154.58 235.517 154.925 236.874C155.003 237.177 155.081 237.649 154.917 237.896C154.897 237.899 154.845 237.911 154.737 237.902C154.528 237.885 154.326 237.831 154.128 237.764C154.132 237.752 154.137 237.741 154.141 237.728C154.17 237.637 154.108 237.58 153.996 237.553C153.312 235.453 151.128 233.564 149.283 232.636C149.066 232.527 148.832 232.43 148.59 232.346C148.6 232.313 148.608 232.279 148.61 232.242C148.668 231.299 148.75 229.831 149.867 230.274ZM155.658 231.506C156.509 232.836 157.103 234.905 156.245 236.287C155.901 234.922 154.942 233.562 154.191 232.542C153.578 231.71 152.803 230.749 151.894 230.051C152.334 229.244 152.812 228.981 153.719 229.473C154.541 229.92 155.163 230.733 155.658 231.506ZM176.061 258.735C176.072 258.709 176.075 258.683 176.069 258.659C186.033 251.158 200.176 250.698 212.147 250.681C212.197 250.681 212.252 250.671 212.309 250.657C212.063 251.342 211.493 252.02 211.115 252.554C210.567 253.33 209.985 254.106 209.322 254.789C209.317 254.793 209.316 254.797 209.312 254.801C206.072 254.789 202.831 254.799 199.598 254.964C191.643 255.373 183.79 256.874 176.061 258.735ZM149.982 234.455C151.095 235.373 152.26 236.617 152.692 238.044C152.651 238.13 152.64 238.217 152.666 238.299C152.509 238.63 152.307 238.857 152.074 239.009C151.97 239.049 151.875 239.097 151.801 239.148C150.644 239.577 148.947 238.504 147.944 237.721C146.546 236.63 145.461 235.099 145.997 233.277C146.041 233.127 146.11 233.018 146.19 232.928C146.387 232.704 146.677 232.646 147.019 232.706C148.052 232.886 149.509 234.064 149.982 234.455ZM199.917 255.612C204.318 255.386 208.748 255.498 213.156 255.507C212.35 256.688 211.487 257.862 210.749 259.091C210.015 259.053 209.284 259.018 208.561 258.982C203.699 258.731 198.827 258.664 193.959 258.639C189.656 258.617 185.352 258.648 181.049 258.735C180.465 258.747 179.756 258.7 179.019 258.671C185.903 257.122 192.854 255.973 199.917 255.612ZM163.039 190.888C164.22 190.755 165.389 190.641 166.535 190.535C171.573 197.094 181.422 205.453 188.778 198.514C191.459 200.63 192.357 203.971 192.839 207.288C193.389 211.083 193.434 214.94 193.944 218.746C195.36 229.302 196.994 240.378 201.059 250.293C192.103 250.945 183.058 252.774 175.84 257.842C175.683 257.025 175.43 256.251 175.098 255.514C172.797 247.202 165.599 238.605 157.216 236.759C157.209 236.758 157.203 236.756 157.196 236.755C157.222 236.725 157.246 236.694 157.27 236.663C157.34 236.571 157.407 236.478 157.466 236.381C157.487 236.346 157.507 236.31 157.527 236.274C157.552 236.302 157.594 236.322 157.656 236.333C157.735 236.346 157.845 236.343 157.997 236.314C160.869 235.771 161.202 233.267 159.982 230.929C158.836 228.731 156.555 227.531 154.359 228.677C153.165 228.201 151.876 228.348 150.981 229.478C150.773 229.375 150.559 229.291 150.34 229.226C150.503 229.129 150.621 228.985 150.628 228.8C150.878 222.232 151.784 215.714 151.615 209.131C151.597 208.395 150.238 208.575 150.254 209.217C150.422 215.8 149.517 222.318 149.267 228.886C149.264 228.976 149.282 229.052 149.315 229.115C147.97 229.268 147.404 230.734 147.271 232.072C146.1 231.995 144.985 232.406 144.593 233.74C144.282 234.797 144.584 235.872 145.24 236.827C139.195 239.57 133.37 242.834 127.05 244.926C126.276 245.183 126.421 245.79 127.211 245.528C133.621 243.406 139.523 240.143 145.65 237.358C147.175 239.117 149.87 240.305 151.865 239.869C152.34 240.922 152.868 241.924 153.501 242.898C149.01 242.408 144.411 242.763 139.838 243.26C139.832 243.239 139.823 243.22 139.818 243.199C139.725 242.83 138.384 243.183 138.479 243.557C138.955 245.423 140.264 246.805 141.347 248.336C137.84 248.625 134.436 249.539 131.552 251.435C131.286 251.61 131.254 251.765 131.341 251.881C131.235 252.032 131.241 252.196 131.469 252.318C133.379 253.343 134.581 255.252 136.034 256.804C134.796 257.352 133.599 257.991 132.454 258.728C132.44 258.731 132.428 258.732 132.415 258.736C128.42 259.874 123.853 256.176 121.91 253.016C119.648 249.337 122.087 243.55 123.458 240.004C125.75 234.071 128.113 228.215 130.692 222.442C131.231 221.234 131.781 220.031 132.341 218.831C132.44 218.777 132.523 218.723 132.57 218.676C132.6 218.646 132.615 218.619 132.61 218.596C132.603 218.569 132.559 218.551 132.477 218.545C133.375 216.626 134.296 214.714 135.256 212.815C135.439 212.453 135.624 212.084 135.81 211.712C135.937 211.623 136.017 211.514 135.997 211.396C135.995 211.381 135.992 211.366 135.99 211.351C137.681 207.96 139.51 204.252 141.831 201.034C142.737 199.779 143.718 198.599 144.795 197.542C145.064 197.462 145.295 197.296 145.296 197.087C145.296 197.079 145.296 197.072 145.296 197.066C146.689 195.783 148.238 194.705 149.989 193.931C152.526 192.811 155.311 192.088 158.149 191.58C159.774 191.289 161.416 191.07 163.039 190.888ZM92.4408 213.711C92.4408 196.077 92.4408 178.441 92.4408 160.808C109.738 160.787 127.033 160.43 144.331 160.415C144.319 172.537 143.967 184.656 143.951 196.778C143.63 197.085 143.316 197.402 143.01 197.731C141.945 191.208 140.881 184.686 139.817 178.164C139.803 178.079 139.699 178.038 139.556 178.03C139.541 177.763 139.174 177.658 138.95 177.695C137.706 177.898 136.461 178.101 135.217 178.304C135.21 178.257 135.202 178.21 135.194 178.163C135.163 177.969 135.02 177.865 134.838 177.83C134.709 177.712 134.483 177.669 134.328 177.695C133.083 177.897 131.839 178.101 130.595 178.304C130.587 178.257 130.58 178.21 130.572 178.163C130.555 178.058 130.452 178.002 130.311 177.983C130.26 177.748 129.916 177.66 129.706 177.694C128.461 177.897 127.217 178.1 125.973 178.303C125.965 178.256 125.958 178.209 125.95 178.162C125.925 178.008 125.805 177.923 125.649 177.89C125.541 177.725 125.264 177.664 125.083 177.694C123.839 177.897 122.595 178.1 121.351 178.303C121.343 178.256 121.336 178.209 121.328 178.162C121.312 178.063 121.208 178.011 121.066 177.995C121.026 177.752 120.676 177.658 120.461 177.694C119.217 177.897 117.973 178.1 116.729 178.303C116.721 178.256 116.714 178.209 116.706 178.162C116.681 178.012 116.563 177.928 116.408 177.896C116.302 177.726 116.021 177.664 115.839 177.693C114.595 177.896 113.351 178.099 112.107 178.302C112.099 178.255 112.091 178.209 112.084 178.161C112.073 178.097 111.969 178.072 111.824 178.073C111.852 177.771 111.453 177.655 111.217 177.693C109.973 177.896 108.728 178.099 107.485 178.302C107.477 178.255 107.469 178.209 107.461 178.161C107.44 178.027 107.326 177.953 107.176 177.925C107.086 177.734 106.787 177.661 106.595 177.693C105.351 177.896 104.106 178.099 102.862 178.302C102.855 178.255 102.847 178.208 102.839 178.161C102.83 178.101 102.725 178.078 102.58 178.081C102.618 177.773 102.211 177.653 101.973 177.692C100.74 177.893 99.5086 178.094 98.2768 178.295C98.2569 178.173 98.237 178.052 98.2171 177.93C98.2028 177.842 98.0993 177.799 97.9565 177.788C97.9357 177.527 97.5724 177.425 97.3505 177.461C96.0581 177.672 94.7653 177.883 93.473 178.094C93.1906 178.14 92.7787 178.273 92.7288 178.611C92.7136 178.713 92.7491 178.792 92.8083 178.854C92.781 178.888 92.7667 178.923 92.7723 178.959C94.6669 190.563 96.561 202.167 98.4552 213.772C98.4589 213.795 98.4788 213.813 98.5056 213.827C96.4663 213.839 94.4265 213.849 92.3872 213.85C92.421 213.808 92.4408 213.761 92.4408 213.711ZM135.958 208.66C134.35 198.809 132.742 188.959 131.133 179.108C132.048 178.959 132.963 178.81 133.877 178.66C135.29 187.313 136.703 195.966 138.115 204.619C137.352 205.954 136.637 207.316 135.958 208.66ZM139.537 202.271C138.276 194.55 137.016 186.829 135.755 179.108C136.67 178.959 137.585 178.81 138.5 178.66C139.611 185.468 140.722 192.276 141.834 199.084C141.015 200.089 140.253 201.16 139.537 202.271ZM94.1561 178.877C95.0708 178.728 95.9856 178.579 96.9003 178.429C98.8217 190.2 100.743 201.97 102.665 213.74C102.668 213.763 102.678 213.782 102.692 213.798C101.475 213.809 100.259 213.817 99.0422 213.825C99.4152 213.754 99.8224 213.587 99.7947 213.415C97.9149 201.903 96.036 190.39 94.1561 178.877ZM104.365 213.329C102.503 201.921 100.641 190.515 98.7787 179.108C99.6935 178.959 100.608 178.81 101.523 178.66C103.427 190.324 105.331 201.989 107.235 213.653C107.249 213.734 107.434 213.748 107.661 213.72C107.665 213.729 107.667 213.739 107.672 213.747C106.447 213.761 105.222 213.773 103.998 213.785C104.226 213.68 104.396 213.517 104.365 213.329ZM103.4 179.108C104.315 178.959 105.23 178.81 106.145 178.66C108.048 190.324 109.953 201.989 111.857 213.653C111.86 213.669 111.867 213.683 111.873 213.698C110.786 213.711 109.699 213.724 108.613 213.736C108.842 213.638 109.014 213.493 108.987 213.329C107.125 201.922 105.263 190.515 103.4 179.108ZM108.023 179.108C108.937 178.959 109.852 178.81 110.767 178.66C112.67 190.321 114.574 201.983 116.477 213.644C115.399 213.656 114.321 213.669 113.243 213.682C113.465 213.592 113.631 213.465 113.609 213.329C111.747 201.922 109.885 190.515 108.023 179.108ZM112.645 179.108C113.559 178.959 114.474 178.81 115.389 178.66C117.29 190.304 119.191 201.949 121.092 213.593C120.12 213.603 119.149 213.612 118.178 213.623C118.226 213.535 118.249 213.437 118.232 213.328C116.369 201.922 114.507 190.515 112.645 179.108ZM117.267 179.108C118.182 178.959 119.096 178.81 120.011 178.66C121.909 190.29 123.808 201.921 125.707 213.55C124.723 213.558 123.739 213.566 122.755 213.576C122.828 213.501 122.868 213.418 122.854 213.329C120.991 201.922 119.129 190.515 117.267 179.108ZM121.889 179.108C122.804 178.959 123.718 178.81 124.633 178.66C126.53 190.281 128.427 201.901 130.324 213.522C129.356 213.526 128.388 213.531 127.42 213.538C127.464 213.473 127.488 213.403 127.476 213.329C125.614 201.922 123.751 190.515 121.889 179.108ZM126.511 179.108C127.426 178.959 128.341 178.81 129.255 178.66C131.036 189.57 132.818 200.481 134.599 211.392C134.241 212.115 133.89 212.825 133.544 213.512C133.043 213.512 132.541 213.515 132.04 213.516C132.085 213.457 132.109 213.395 132.098 213.329C130.236 201.922 128.373 190.515 126.511 179.108ZM87.3186 154.897C108.147 154.871 128.974 154.456 149.803 154.441C149.791 167.352 149.351 180.259 149.341 193.172C149.079 193.287 148.816 193.402 148.558 193.526C147.39 194.086 146.309 194.784 145.302 195.591C145.336 183.781 145.668 171.974 145.678 160.164C145.984 160.009 146.184 159.839 145.819 159.839C145.746 159.839 145.673 159.84 145.599 159.84C145.407 159.621 144.906 159.661 144.594 159.843C127.129 159.866 109.667 160.23 92.2019 160.237C91.9042 160.237 90.6719 160.81 91.3394 160.811C91.1989 160.888 91.1018 160.986 91.1018 161.1C91.1018 178.757 91.1018 196.413 91.1018 214.07C91.1018 214.142 91.1906 214.18 91.3218 214.191C91.1198 214.317 91.045 214.428 91.3408 214.428C105.314 214.424 119.285 214.095 133.26 214.085C132.512 215.568 131.786 217.054 131.075 218.546C118.116 218.575 105.161 218.933 92.2019 218.938C91.9042 218.938 90.6701 219.513 91.3408 219.513C91.546 219.513 91.7512 219.511 91.9564 219.51C91.5728 219.549 91.1018 219.753 91.1018 220.048C91.1018 233.52 91.1018 246.995 91.1018 260.468C89.8497 260.468 88.5975 260.468 87.3454 260.468C87.3454 225.329 87.3454 190.191 87.3454 155.053C87.3449 154.994 87.3338 154.944 87.3186 154.897ZM99.222 260.467C99.5345 260.383 99.8183 260.243 99.7947 260.099C97.9153 248.586 96.036 237.074 94.1561 225.561C95.0708 225.411 95.9856 225.262 96.9003 225.113C98.8217 236.883 100.743 248.654 102.665 260.424C102.667 260.44 102.675 260.454 102.684 260.467C101.53 260.467 100.376 260.467 99.222 260.467ZM104.001 260.467C104.227 260.362 104.396 260.2 104.365 260.013C102.503 248.605 100.641 237.199 98.7787 225.793C99.6935 225.643 100.608 225.494 101.523 225.344C103.427 237.008 105.331 248.673 107.235 260.337C107.249 260.418 107.434 260.432 107.661 260.404C107.671 260.428 107.687 260.45 107.707 260.468C106.472 260.467 105.236 260.467 104.001 260.467ZM108.489 260.467C108.776 260.373 109.018 260.205 108.987 260.013C107.124 248.605 105.262 237.199 103.4 225.793C104.315 225.643 105.23 225.494 106.145 225.344C108.048 237.008 109.953 248.673 111.857 260.337C111.866 260.39 111.891 260.431 111.925 260.467C110.779 260.467 109.634 260.467 108.489 260.467ZM112.902 260.467C113.265 260.394 113.642 260.214 113.609 260.013C111.747 248.605 109.884 237.199 108.023 225.793C108.937 225.643 109.852 225.494 110.767 225.344C112.671 237.008 114.575 248.673 116.479 260.337C116.519 260.578 117.869 260.287 117.818 259.979C115.907 248.268 113.995 236.558 112.083 224.847C112.073 224.783 111.969 224.758 111.823 224.759C111.852 224.457 111.452 224.341 111.216 224.379C109.972 224.582 108.728 224.785 107.484 224.988C107.476 224.941 107.469 224.895 107.461 224.847C107.439 224.713 107.326 224.639 107.176 224.611C107.086 224.42 106.787 224.347 106.594 224.379C105.35 224.582 104.106 224.785 102.862 224.988C102.854 224.941 102.847 224.894 102.839 224.847C102.829 224.787 102.725 224.764 102.58 224.767C102.618 224.459 102.211 224.339 101.972 224.378C100.74 224.579 99.5081 224.78 98.2763 224.981C98.2564 224.859 98.2366 224.738 98.2167 224.616C98.2024 224.528 98.0988 224.485 97.956 224.474C97.9352 224.213 97.5719 224.111 97.35 224.147C96.0577 224.358 94.7649 224.569 93.4725 224.78C93.1901 224.826 92.7783 224.959 92.7283 225.297C92.7131 225.399 92.7487 225.478 92.8078 225.54C92.7806 225.574 92.7662 225.609 92.7718 225.645C94.6664 237.249 96.5606 248.853 98.4547 260.458C98.4552 260.461 98.4584 260.463 98.4598 260.467C96.4353 260.467 94.4108 260.467 92.3863 260.467C92.4205 260.415 92.4404 260.36 92.4404 260.3C92.4404 246.762 92.4404 233.226 92.4404 219.688C92.4404 219.582 92.3355 219.526 92.1862 219.508C105.061 219.488 117.932 219.136 130.806 219.117C129.085 222.753 127.464 226.425 125.975 230.187C124.123 234.867 122.043 239.555 120.617 244.387C119.406 248.492 119.269 252.551 122.338 255.82C124.352 257.965 127.665 259.895 130.794 259.897C130.553 260.082 130.315 260.272 130.08 260.466C128.165 260.466 126.25 260.466 124.334 260.466C120.524 260.467 116.713 260.467 112.902 260.467ZM132.328 259.728C132.439 259.703 132.551 259.685 132.66 259.654C132.991 259.559 133.147 259.355 133.164 259.159C134.366 258.373 135.621 257.71 136.921 257.16C137.086 257.126 137.244 257.058 137.363 256.97C141.496 255.312 146.043 254.73 150.624 254.734C154.793 254.738 158.878 255.432 162.963 256.193C166.978 256.941 171.061 257.664 174.873 259.17C174.967 259.207 175.115 259.199 175.276 259.164C175.272 259.194 175.27 259.224 175.28 259.251C175.271 259.263 175.266 259.275 175.259 259.286C167.537 260.261 159.476 259.9 151.726 260.01C147.362 260.073 142.998 260.117 138.634 260.178C137.059 260.199 134.581 259.773 133.078 260.416C133.04 260.432 133.009 260.449 132.977 260.466C132.435 260.466 131.894 260.466 131.353 260.466C131.673 260.21 131.999 259.966 132.328 259.728ZM170.867 260.467C172.596 260.35 174.316 260.185 176.016 259.944C176.249 259.911 176.453 259.788 176.581 259.648C176.93 259.63 177.279 259.616 177.629 259.603C179.08 259.554 180.531 259.526 181.983 259.5C186.145 259.427 190.309 259.411 194.473 259.437C198.999 259.465 203.527 259.552 208.049 259.773C208.791 259.81 209.542 259.843 210.296 259.881C210.292 259.888 210.288 259.895 210.284 259.902C210.203 260.054 210.448 260.121 210.533 260.143C210.536 260.144 210.539 260.144 210.542 260.145C210.723 260.193 211.085 260.086 211.338 259.941C212.919 260.038 214.503 260.186 216.05 260.467C200.988 260.467 185.928 260.467 170.867 260.467ZM276.901 244.539C278.276 242.686 280.044 242.804 281.482 244.475C282.724 245.918 282.989 248.25 282.599 250.04C281.934 253.09 276.712 255.658 276.253 251.239C276.827 249.188 276.873 246.978 276.607 244.717C276.74 244.668 276.85 244.608 276.901 244.539ZM252.069 255.812C247.985 253 246.955 246.285 248.144 241.624C256.968 241.873 265.791 241.486 274.616 241.461C275.88 246.842 276.161 252.416 271.687 256.269C268.65 256.357 265.624 256.461 262.558 256.316C259.088 256.152 255.607 255.976 252.152 256.231C252.256 256.096 252.26 255.944 252.069 255.812ZM250.822 260.157C249.564 259.752 248.512 258.873 248.249 257.593C253.332 256.601 258.555 257.048 263.692 257.278C266.185 257.39 268.647 257.285 271.115 257.188C271.31 257.431 271.842 257.528 272.177 257.263C272.228 257.223 272.275 257.182 272.325 257.141C273.218 257.11 274.113 257.085 275.011 257.075C275.188 258.474 274.641 259.697 273.403 260.424C273.383 260.436 273.362 260.451 273.342 260.467C265.864 260.467 258.387 260.467 250.91 260.467C250.985 260.347 251.004 260.216 250.822 260.157ZM189.6 180.652C189.839 180.772 190.079 180.892 190.318 181.011C191.003 180.091 191.658 179.15 192.458 178.323C192.77 178.001 194.084 177.983 193.534 178.55C192.608 179.506 191.899 180.646 191.078 181.689C190.843 181.987 190.279 182.177 189.922 181.998C189.46 181.767 188.998 181.536 188.535 181.305C187.974 181.025 189.204 180.454 189.6 180.652ZM181.234 180.927C180.709 180.084 180.568 179.047 180.778 178.082C180.858 177.716 182.185 177.497 182.105 177.866C181.905 178.781 182.078 179.774 182.573 180.569C182.715 180.796 181.463 181.295 181.234 180.927ZM255.123 217.352C253.6 215.415 253.256 212.349 253.944 210.018C254.615 207.749 256.165 206.628 258.115 205.446C258.367 205.293 259.721 205.158 259.146 205.506C256.084 207.361 254.41 209.862 255.093 213.618C255.671 216.797 257.778 218.227 260.071 220.188C261.717 221.596 263.147 223.782 262.465 226.063C261.802 228.28 259.765 229.485 258.315 231.162C258.1 231.412 256.81 231.583 257.098 231.249C258.99 229.06 262.248 227.217 261.031 223.781C259.977 220.807 256.979 219.712 255.123 217.352ZM261.397 210.13C261.038 207.003 261.092 201.485 264.888 200.475C265.672 200.266 265.792 200.715 265.008 200.924C263.06 201.442 262.686 205.344 262.631 206.889C262.572 208.559 262.507 210.827 263.462 212.301C265.811 215.927 270.963 217.628 269.77 222.772C269.689 223.119 268.371 223.326 268.446 222.999C269.833 217.02 262.016 215.533 261.397 210.13Z" fill="#2A2A2B"/>
<rect x="24.5" y="48.5" width="318" height="302" stroke="#3ABB37"/>
</g>
<rect opacity="0.1" x="165" y="513" width="6" height="6" rx="3" fill="#FF5712"/>
<rect opacity="0.15" x="177" y="513" width="6" height="6" rx="3" fill="#FF5712"/>
<rect opacity="0.15" x="189" y="513" width="6" height="6" rx="3" fill="#FF5712"/>
<rect x="201" y="511" width="10" height="10" rx="5" fill="#FF5712"/>
<rect x="110" y="560" width="155" height="48" rx="12" fill="#FF5712"/>
<path d="M170.391 590H172.336V582.234H172.461L178 590H179.742V578.727H177.805V586.492H177.68L172.141 578.727H170.391V590ZM185.984 590.172C188.305 590.172 189.445 588.836 189.719 587.734L189.742 587.664H187.891L187.867 587.719C187.68 588.109 187.078 588.641 186.023 588.641C184.703 588.641 183.875 587.75 183.852 586.219H189.82V585.578C189.82 583 188.32 581.297 185.891 581.297C183.461 581.297 181.906 583.055 181.906 585.742V585.75C181.906 588.469 183.445 590.172 185.984 590.172ZM185.914 582.82C187 582.82 187.789 583.516 187.922 584.914H183.867C184.016 583.555 184.828 582.82 185.914 582.82ZM190.773 590H192.867L194.609 587.031H194.742L196.492 590H198.68L195.891 585.68L198.648 581.461H196.516L194.828 584.422H194.695L193 581.461H190.75L193.539 585.766L190.773 590ZM203.75 590.039C204.125 590.039 204.484 590.008 204.766 589.953V588.453C204.531 588.477 204.383 588.484 204.109 588.484C203.297 588.484 202.961 588.125 202.961 587.273V582.969H204.766V581.461H202.961V579.367H200.984V581.461H199.656V582.969H200.984V587.734C200.984 589.383 201.789 590.039 203.75 590.039Z" fill="white"/>
</g>
<defs>
<linearGradient id="paint0_linear_4_915" x1="146.389" y1="410.371" x2="202.382" y2="124.957" gradientUnits="userSpaceOnUse">
<stop stop-color="#FAC7FF"/>
<stop offset="1" stop-color="#FFD2BE"/>
</linearGradient>
<linearGradient id="paint1_linear_4_915" x1="67.0823" y1="108.27" x2="121.005" y2="119.109" gradientUnits="userSpaceOnUse">
<stop stop-color="#FAC7FF"/>
<stop offset="1" stop-color="#FFD2BE"/>
</linearGradient>
<clipPath id="clip0_4_915">
<rect width="375" height="667" fill="white"/>
</clipPath>
<clipPath id="clip1_4_915">
<rect width="275.147" height="275.147" fill="white" transform="translate(45 63.1731)"/>
</clipPath>
</defs>
</svg>
